<svg width="32" height="32" viewBox="0 0 32 32" fill="none" xmlns="http://www.w3.org/2000/svg">
<path d="M27 4H5V28H27V4ZM7 6H25V26H19V21H13V26H7V6ZM9 12V14H11V12H9ZM13 12V14H15V12H13ZM17 12V14H19V12H17ZM21 12V14H23V12H21ZM9 15V17H11V15H9ZM13 15V17H15V15H13ZM17 15V17H19V15H17ZM21 15V17H23V15H21ZM9 18V20H11V18H9ZM13 18V20H15V18H13ZM17 18V20H19V18H17ZM21 18V20H23V18H21ZM9 21V23H11V21H9ZM21 21V23H23V21H21ZM15 23H17V26H15V23Z" fill="black"/>
<path d="M9 11V9H11V11H9Z" fill="black"/>
<path d="M13 11V9H15V11H13Z" fill="black"/>
<path d="M17 11V9H19V11H17Z" fill="black"/>
<path d="M21 11V9H23V11H21Z" fill="black"/>
</svg>
