<svg width="32" height="32" viewBox="0 0 32 32" fill="none" xmlns="http://www.w3.org/2000/svg">
<path fill-rule="evenodd" clip-rule="evenodd" d="M15.9857 12.6778L15.9931 12.6779H15.9783L15.9857 12.6778ZM16.6196 12.5487C16.4187 12.6326 16.2034 12.6763 15.9857 12.6778C15.7679 12.6763 15.5526 12.6326 15.3516 12.5487C15.1484 12.4641 14.9638 12.3401 14.8085 12.1841C14.653 12.028 14.5299 11.8428 14.4461 11.6393C14.3624 11.4357 14.3194 11.2174 14.3199 10.9972V4.83036C14.298 4.59842 14.3249 4.36446 14.3986 4.14346C14.4723 3.92247 14.5913 3.71931 14.7482 3.54701C14.905 3.3747 15.0961 3.23704 15.3091 3.14285C15.5223 3.04866 15.7527 3 15.9857 3C16.2186 3 16.449 3.04866 16.6621 3.14285C16.8752 3.23704 17.0663 3.3747 17.2231 3.54701C17.3799 3.71931 17.4989 3.92247 17.5727 4.14346C17.6465 4.36446 17.6732 4.59842 17.6513 4.83036V10.9972C17.6519 11.2174 17.609 11.4357 17.5251 11.6393C17.4413 11.8428 17.3182 12.028 17.1629 12.1841C17.0075 12.3401 16.8229 12.4641 16.6196 12.5487ZM12.0843 15.5318C12.0175 15.7413 11.91 15.9357 11.7678 16.1036C11.6256 16.2715 11.4516 16.4097 11.2559 16.5101C11.0602 16.6105 10.8466 16.6713 10.6272 16.6889C10.4079 16.7065 10.1873 16.6806 9.97809 16.6127L4.14432 14.7062C3.72533 14.5652 3.37881 14.2647 3.17983 13.87C2.98086 13.4752 2.94546 13.0179 3.08131 12.5972C3.21717 12.1765 3.51332 11.8262 3.90561 11.6224C4.2979 11.4185 4.75472 11.3775 5.17708 11.5081L11.0108 13.4144C11.4337 13.5533 11.7841 13.8541 11.9854 14.2512C12.1867 14.648 12.2222 15.1086 12.0843 15.5318ZM19.902 15.5318C19.9688 15.7417 20.0765 15.9366 20.2189 16.1047C20.3613 16.2729 20.5356 16.4113 20.7318 16.5118C20.928 16.6122 21.1421 16.6728 21.3617 16.6902C21.5815 16.7074 21.8024 16.6811 22.0119 16.6127L27.8457 14.7062C28.2647 14.5652 28.6112 14.2647 28.8101 13.87C29.0092 13.4752 29.0445 13.0179 28.9087 12.5972C28.7728 12.1765 28.4767 11.8262 28.0844 11.6224C27.6921 11.4185 27.2352 11.3775 26.8129 11.5081L20.9755 13.4144C20.5532 13.5541 20.2035 13.8551 20.0023 14.2518C19.8012 14.6485 19.7651 15.1086 19.902 15.5318ZM8.00137 27.8693C7.64177 27.6058 7.40102 27.2108 7.33167 26.7704C7.26231 26.33 7.37 25.8801 7.6312 25.5188L11.2365 20.5475C11.3655 20.3695 11.5281 20.2187 11.7153 20.1038C11.9025 19.9888 12.1106 19.9119 12.3276 19.8776C12.5446 19.8431 12.7662 19.8519 12.9799 19.9034C13.1935 19.9549 13.3948 20.048 13.5723 20.1773C13.932 20.4409 14.1726 20.8359 14.2421 21.2763C14.3113 21.7167 14.2037 22.1666 13.9425 22.5279L10.3408 27.4955C10.2116 27.6736 10.0486 27.8244 9.86107 27.9395C9.67353 28.0545 9.46515 28.1314 9.24785 28.1657C9.03056 28.2001 8.80861 28.1913 8.59473 28.1398C8.38083 28.0884 8.1792 27.9952 8.00137 27.8656V27.8693ZM23.9852 27.8693C24.3448 27.6058 24.5855 27.2108 24.655 26.7704C24.7242 26.33 24.6166 25.8801 24.3554 25.5188L20.7537 20.5475C20.6239 20.3697 20.4604 20.219 20.2724 20.1043C20.0843 19.9896 19.8757 19.913 19.658 19.879C19.4405 19.845 19.2184 19.8541 19.0043 19.906C18.7903 19.9578 18.5885 20.0512 18.4105 20.1811C18.2327 20.3109 18.082 20.4744 17.9674 20.6624C17.8527 20.8504 17.7761 21.0591 17.7421 21.2767C17.7081 21.4943 17.7172 21.7165 17.769 21.9305C17.8208 22.1446 17.9144 22.3463 18.0441 22.5242L21.6494 27.514C21.7784 27.692 21.941 27.8428 22.1282 27.9577C22.3155 28.0727 22.5235 28.1495 22.7405 28.184C22.9575 28.2183 23.1791 28.2096 23.3928 28.1582C23.6064 28.1067 23.8077 28.0135 23.9852 27.8841V27.8693Z" fill="black"/>
</svg>
