<svg width="32" height="32" viewBox="0 0 32 32" fill="none" xmlns="http://www.w3.org/2000/svg">
<path d="M26.0703 3.99609C25.7344 4.01172 25.418 4.10938 25.1367 4.21875H25.1328C24.8477 4.33203 23.4922 4.90234 21.4336 5.76563C19.375 6.63281 16.7031 7.75781 14.0508 8.875C8.75391 11.1055 3.54688 13.3008 3.54688 13.3008L3.60938 13.2773C3.60938 13.2773 3.25 13.3945 2.875 13.6523C2.68359 13.7773 2.47266 13.9492 2.28906 14.2188C2.10547 14.4883 1.95703 14.9023 2.01172 15.3281C2.10156 16.0508 2.57031 16.4844 2.90625 16.7227C3.24609 16.9648 3.57031 17.0781 3.57031 17.0781H3.57813L8.46094 18.7227C8.67969 19.4258 9.94922 23.5977 10.2539 24.5586C10.4336 25.1328 10.6094 25.4922 10.8281 25.7656C10.9336 25.9062 11.0586 26.0234 11.207 26.1172C11.2656 26.1523 11.3281 26.1797 11.3906 26.2031C11.4102 26.2148 11.4297 26.2188 11.4531 26.2227L11.4023 26.2109C11.418 26.2148 11.4297 26.2266 11.4414 26.2305C11.4805 26.2422 11.5078 26.2461 11.5586 26.2539C12.332 26.4883 12.9531 26.0078 12.9531 26.0078L12.9883 25.9805L15.8711 23.3555L20.7031 27.0625L20.8125 27.1094C21.8203 27.5508 22.8398 27.3047 23.3789 26.8711C23.9219 26.4336 24.1328 25.875 24.1328 25.875L24.168 25.7852L27.9023 6.65625C28.0078 6.18359 28.0352 5.74219 27.918 5.3125C27.8008 4.88281 27.5 4.48047 27.1367 4.26563C26.7695 4.04688 26.4063 3.98047 26.0703 3.99609ZM25.9688 6.04688C25.9648 6.10938 25.9766 6.10156 25.9492 6.22266V6.23438L22.25 25.1641C22.2344 25.1914 22.207 25.25 22.1328 25.3086C22.0547 25.3711 21.9922 25.4102 21.668 25.2812L15.7578 20.75L12.1875 24.0039L12.9375 19.2148C12.9375 19.2148 22.1953 10.5859 22.5938 10.2148C22.9922 9.84375 22.8594 9.76562 22.8594 9.76562C22.8867 9.3125 22.2578 9.63281 22.2578 9.63281L10.082 17.1758L10.0781 17.1562L4.24219 15.1914V15.1875C4.23828 15.1875 4.23047 15.1836 4.22656 15.1836C4.23047 15.1836 4.25781 15.1719 4.25781 15.1719L4.28906 15.1562L4.32031 15.1445C4.32031 15.1445 9.53125 12.9492 14.8281 10.7188C17.4805 9.60156 20.1523 8.47656 22.207 7.60938C24.2617 6.74609 25.7813 6.11328 25.8672 6.07813C25.9492 6.04688 25.9102 6.04688 25.9688 6.04688Z" fill="black"/>
</svg>
