<svg width="128" height="128" viewBox="0 0 128 128" fill="none" xmlns="http://www.w3.org/2000/svg">
<g clip-path="url(#clip0_109_30)">
<rect width="128" height="128" rx="64" fill="white"/>
<rect width="128" height="128" rx="64" fill="white"/>
<path fill-rule="evenodd" clip-rule="evenodd" d="M63.6489 40C68.1978 40 71.8862 40.5171 71.8862 41.1554H55.4088C55.4088 40.5171 59.0991 40 63.6489 40ZM70.5467 43.6273H57.3694C56.6875 43.6215 56.0158 43.7928 55.42 44.1245C54.8242 44.4561 54.3246 44.9366 53.9701 45.5192C54.0883 44.6222 54.5284 43.7987 55.2085 43.202C55.8886 42.6053 56.7623 42.276 57.667 42.2754H70.249C70.3673 42.2754 70.4847 42.2811 70.6001 42.2916C71.4409 42.3719 72.2297 42.735 72.8374 43.3216C73.4452 43.9082 73.836 44.6836 73.946 45.5211C73.5918 44.9381 73.0923 44.4571 72.4965 44.1252C71.9006 43.7932 71.2288 43.6216 70.5467 43.6273ZM57.3694 47.0332H70.5467C71.2289 47.0278 71.9009 47.1996 72.4968 47.5319C73.0927 47.8642 73.592 48.3456 73.946 48.9289C73.9183 48.7199 73.8727 48.5137 73.8095 48.3126C73.8088 48.3102 73.8081 48.3078 73.8075 48.3053C73.8065 48.3015 73.8056 48.2977 73.8047 48.2939L73.8046 48.2937L73.8045 48.2933L73.8045 48.2932L73.8045 48.2932C73.802 48.2832 73.7996 48.2732 73.7962 48.264C73.7746 48.1968 73.749 48.1316 73.7233 48.0662C73.7183 48.0536 73.7133 48.041 73.7084 48.0283C73.7031 48.0154 73.6984 48.0021 73.6936 47.9887C73.6888 47.9754 73.6841 47.962 73.6788 47.9491C73.4154 47.3319 72.9903 46.7972 72.4485 46.4013C71.9067 46.0054 71.2681 45.763 70.6001 45.6995C70.4847 45.688 70.3673 45.6823 70.249 45.6823H57.667C56.7623 45.6829 55.8886 46.0122 55.2085 46.6089C54.5284 47.2056 54.0883 48.0291 53.9701 48.9261C54.3244 48.3433 54.8239 47.8625 55.4198 47.5307C56.0156 47.1989 56.6874 47.0275 57.3694 47.0332ZM65.1086 49.0787H57.667C56.762 49.0793 55.8881 49.4089 55.2079 50.006C54.5278 50.6031 54.0879 51.427 53.9701 52.3244C54.3244 51.7417 54.824 51.261 55.4198 50.9294C56.0157 50.5978 56.6875 50.4266 57.3694 50.4325H62.2355H64.7423H64.811H68.3524H69.8273H70.0697H70.5467C71.2284 50.4266 71.8999 50.5976 72.4958 50.9288C73.0916 51.2601 73.5912 51.7403 73.9459 52.3225C73.8277 51.4255 73.3876 50.602 72.7075 50.0053C72.0275 49.4086 71.1538 49.0793 70.249 49.0787H70.0697H69.8273H68.3524H65.1086ZM73.3578 54.9781C73.3647 54.9862 73.3716 54.9943 73.3792 55.0014C73.5972 55.22 73.7875 55.4645 73.946 55.7294C73.836 54.8919 73.4452 54.1165 72.8374 53.5299C72.2297 52.9433 71.4409 52.5802 70.6001 52.4999C70.4847 52.4837 70.3673 52.4837 70.249 52.4837H70.249H57.667C56.7623 52.4843 55.8886 52.8136 55.2085 53.4103C54.5284 54.007 54.0883 54.8305 53.9701 55.7275C54.3244 55.1447 54.8239 54.6639 55.4198 54.3321C56.0156 54.0003 56.6874 53.8289 57.3694 53.8346H70.5467C70.8313 53.8366 71.115 53.8686 71.3929 53.93C72.0933 54.076 72.7409 54.4094 73.2667 54.8946C73.2791 54.9064 73.2948 54.9195 73.3089 54.9312L73.3089 54.9312L73.309 54.9313L73.3091 54.9314C73.3199 54.9403 73.3297 54.9485 73.3363 54.9547C73.3439 54.9618 73.3509 54.9699 73.3578 54.9781L73.3578 54.9781ZM63.9638 55.7151H57.667C56.762 55.7157 55.8881 56.0452 55.2079 56.6423C54.5278 57.2394 54.0879 58.0634 53.9701 58.9607C54.3246 58.3782 54.8242 57.8976 55.42 57.566C56.0158 57.2344 56.6875 57.0631 57.3694 57.0689H61.0906H63.5996H63.6661H64.6793H66.0331V57.0717H70.5467C71.2277 57.0664 71.8985 57.2378 72.4936 57.569C73.0887 57.9002 73.5878 58.3801 73.9421 58.9617C73.9159 58.7659 73.8738 58.5725 73.8162 58.3835C73.8146 58.3782 73.8132 58.3732 73.8119 58.3684C73.8102 58.3621 73.8087 58.3561 73.8071 58.3499L73.807 58.3496L73.807 58.3495C73.8033 58.335 73.7993 58.3193 73.7923 58.2967C73.7845 58.2715 73.7748 58.2471 73.7652 58.2227L73.7652 58.2226L73.7651 58.2226L73.7651 58.2225L73.7651 58.2225C73.7594 58.2081 73.7537 58.1938 73.7485 58.1794C73.7274 58.1212 73.707 58.0675 73.6842 58.0071L73.6842 58.0071L73.675 57.9828C73.6534 57.9258 73.6262 57.8706 73.599 57.8153C73.5925 57.8022 73.586 57.789 73.5796 57.7758C73.5726 57.7617 73.5661 57.7477 73.5596 57.7338C73.5513 57.7156 73.543 57.6977 73.5338 57.6804C73.5194 57.6532 73.5043 57.6286 73.4884 57.6026L73.4884 57.6026C73.4769 57.5839 73.4651 57.5646 73.4527 57.543C73.4231 57.4915 73.3955 57.4438 73.364 57.3961C73.3591 57.3881 73.3537 57.3804 73.3478 57.3732C73.2915 57.2892 73.2333 57.2072 73.1713 57.128L73.1677 57.1238L73.1653 57.1211L73.1626 57.118C73.1589 57.1137 73.1551 57.1095 73.1514 57.1053L73.1513 57.1052L73.1512 57.1051L73.1511 57.105C73.1412 57.0938 73.1313 57.0826 73.1216 57.0708C73.1109 57.0582 73.1003 57.0455 73.0896 57.0329L73.0895 57.0329C73.046 56.9814 73.0024 56.9297 72.9556 56.8799C72.7665 56.6804 72.556 56.5022 72.3279 56.3485C72.2942 56.3251 72.2577 56.3022 72.2214 56.2795C72.2104 56.2726 72.1994 56.2657 72.1886 56.2589C71.7062 55.9643 71.1629 55.7839 70.6001 55.7313C70.4847 55.7208 70.3673 55.7151 70.249 55.7151H66.1104H66.0331H64.6793H63.9638ZM57.3694 60.3098H70.5467C71.2287 60.3046 71.9004 60.4767 72.4959 60.8092C73.0915 61.1417 73.5905 61.6231 73.944 62.2064C73.9042 61.9093 73.8286 61.6181 73.7189 61.3392C73.713 61.3238 73.7074 61.3083 73.7018 61.2928C73.6939 61.2707 73.6859 61.2485 73.6769 61.2266C73.6545 61.1674 73.6261 61.1102 73.5978 61.0533L73.5977 61.0532L73.5977 61.0531L73.5977 61.0531L73.5976 61.0531L73.5976 61.0531L73.5907 61.039L73.5854 61.0285L73.5815 61.0205C73.5754 61.008 73.5698 60.9958 73.5642 60.9838C73.5549 60.9637 73.5459 60.9442 73.5357 60.9251C73.5062 60.8622 73.4668 60.8013 73.4279 60.7412C73.4202 60.7294 73.4126 60.7175 73.405 60.7057C73.4033 60.7031 73.4017 60.7004 73.4001 60.6978C73.3989 60.6958 73.3977 60.6938 73.3966 60.6918L73.3956 60.6902C73.3924 60.6847 73.3892 60.6791 73.3861 60.6735L73.386 60.6734L73.3859 60.6733L73.3859 60.6732L73.3859 60.6732C73.3797 60.6622 73.3735 60.6513 73.3668 60.6408C73.0605 60.1731 72.6526 59.7805 72.1736 59.4921C71.6946 59.2037 71.1568 59.027 70.6001 58.975C70.4847 58.9588 70.3673 58.9588 70.249 58.9588H57.667C56.7623 58.9594 55.8886 59.2887 55.2085 59.8854C54.5284 60.4821 54.0883 61.3056 53.9701 62.2026C54.3243 61.6197 54.8238 61.1389 55.4197 60.8071C56.0156 60.4753 56.6874 60.3039 57.3694 60.3098ZM73.1102 64.4732C73.0928 64.4584 73.0761 64.4432 73.0594 64.428C73.0275 64.399 72.9957 64.3701 72.9595 64.3444C72.9556 64.3412 72.9514 64.3384 72.9471 64.3358C72.5649 64.0524 72.1347 63.8404 71.6772 63.71C71.31 63.6024 70.9294 63.5474 70.5467 63.5468H57.3694C56.6875 63.5411 56.0158 63.7124 55.42 64.044C54.8242 64.3756 54.3246 64.8562 53.9701 65.4387C54.0883 64.5417 54.5284 63.7182 55.2085 63.1215C55.8886 62.5248 56.7623 62.1955 57.667 62.1949H70.249C70.3673 62.1949 70.4847 62.2007 70.6001 62.2112C71.4409 62.2914 72.2297 62.6545 72.8374 63.2411C73.4452 63.8277 73.836 64.6031 73.946 65.4406C73.7243 65.073 73.4417 64.7459 73.1102 64.4732ZM70.5467 66.782C70.8313 66.7844 71.1149 66.8164 71.3929 66.8774C71.9195 66.9855 72.4181 67.2012 72.8574 67.511C73.2967 67.8208 73.6673 68.218 73.946 68.6777C73.836 67.8402 73.4452 67.0648 72.8374 66.4782C72.2297 65.8916 71.4409 65.5285 70.6001 65.4482C70.4847 65.4368 70.3673 65.4311 70.249 65.4311H57.667C56.7623 65.4316 55.8886 65.7609 55.2085 66.3576C54.5284 66.9544 54.0883 67.7778 53.9701 68.6748C54.3244 68.0921 54.8239 67.6113 55.4198 67.2795C56.0156 66.9477 56.6874 66.7763 57.3694 66.782H70.5467ZM62.5327 68.6682H57.667C56.7614 68.6689 55.887 68.999 55.2068 69.5969C54.5266 70.1948 54.087 71.0196 53.9701 71.9176C54.3246 71.3351 54.8242 70.8545 55.42 70.5229C56.0158 70.1913 56.6875 70.02 57.3694 70.0258H59.6569H60.5467H60.6131H62.1685H62.235H68.2455H69.8273H69.8674H70.5467C71.228 70.0196 71.8992 70.1901 72.495 70.5207C73.0907 70.8512 73.5906 71.3306 73.9459 71.9119C73.8277 71.0149 73.3876 70.1914 72.7075 69.5947C72.0275 68.998 71.1538 68.6687 70.249 68.6682H69.8674H69.8273H68.2455H62.5327ZM57.3694 73.259H70.5467C71.2288 73.2535 71.9008 73.4252 72.4966 73.7573C73.0925 74.0895 73.5919 74.5706 73.946 75.1538C73.834 74.3171 73.4426 73.5428 72.8352 72.9566C72.2279 72.3703 71.4402 72.0066 70.6001 71.9243C70.4847 71.9081 70.3673 71.9081 70.249 71.9081H57.667C56.7622 71.9085 55.8884 72.2377 55.2083 72.8344C54.5282 73.4312 54.0881 74.2548 53.9701 75.1519C54.3244 74.5691 54.8239 74.0883 55.4198 73.7565C56.0156 73.4247 56.6874 73.2533 57.3694 73.259ZM70.5467 76.4971H57.3694C56.6875 76.4913 56.0158 76.6626 55.42 76.9942C54.8242 77.3258 54.3246 77.8064 53.9701 78.3889C54.0883 77.4919 54.5284 76.6685 55.2085 76.0717C55.8886 75.475 56.7623 75.1457 57.667 75.1452H70.249C70.3673 75.1452 70.4847 75.1509 70.6001 75.1614C71.4409 75.2416 72.2297 75.6048 72.8374 76.1914C73.4452 76.778 73.836 77.5534 73.946 78.3908C73.5917 77.808 73.0922 77.327 72.4964 76.9951C71.9006 76.6631 71.2287 76.4915 70.5467 76.4971ZM74.7998 48.9575C75.4533 48.9346 76.1355 48.9222 76.8415 48.9222C81.3913 48.9222 85.0797 49.4393 85.0797 50.0776H74.7998V48.9575ZM82.726 52.4952H74.7998V51.1414H82.4322C83.3371 51.1417 84.211 51.4709 84.8913 52.0676C85.5716 52.6643 86.0118 53.488 86.1301 54.3851C85.775 53.8022 85.2746 53.3215 84.6779 52.9902C84.0811 52.6589 83.4085 52.4883 82.726 52.4952ZM82.726 55.8973H78.7839V55.8982H77.3528H76.2309H74.7998V54.5444H76.2309H77.3528H78.7066V54.5435H82.4274C83.3323 54.5438 84.2063 54.873 84.8865 55.4697C85.5668 56.0665 86.0071 56.8901 86.1253 57.7872C85.7706 57.2051 85.2709 56.7249 84.6751 56.3936C84.0793 56.0623 83.4077 55.8913 82.726 55.8973ZM82.726 59.3004H74.7998V57.9466H82.4322C83.3371 57.9469 84.211 58.2761 84.8913 58.8728C85.5716 59.4696 86.0118 60.2932 86.1301 61.1903C85.7751 60.6073 85.2747 60.1266 84.6779 59.7953C84.0812 59.4639 83.4085 59.2934 82.726 59.3004ZM74.7998 62.7015H82.726C83.4086 62.6948 84.0813 62.8655 84.678 63.197C85.2748 63.5285 85.7751 64.0093 86.1301 64.5925C86.0118 63.6953 85.5716 62.8717 84.8913 62.275C84.211 61.6782 83.3371 61.349 82.4322 61.3487H74.7998V62.7015ZM82.726 65.9396H74.7998V64.5877H82.4322C83.3369 64.5883 84.2106 64.9175 84.8907 65.5143C85.5708 66.111 86.0109 66.9345 86.1291 67.8314C85.7743 67.2484 85.2741 66.7674 84.6776 66.4358C84.081 66.1041 83.4085 65.9332 82.726 65.9396ZM74.7998 69.1776H82.726C83.4085 69.1706 84.0812 69.3412 84.6779 69.6725C85.2747 70.0038 85.7751 70.4846 86.1301 71.0676C86.0118 70.1704 85.5716 69.3468 84.8913 68.7501C84.211 68.1533 83.3371 67.8242 82.4322 67.8238H74.7998V69.1776ZM82.726 72.4109H74.7998V71.0609H82.4322C83.3371 71.0612 84.211 71.3904 84.8913 71.9872C85.5716 72.5839 86.0118 73.4075 86.1301 74.3047C85.7754 73.7211 85.2752 73.2397 84.6784 72.9077C84.0817 72.5757 83.4089 72.4045 82.726 72.4109ZM74.7998 75.6546H82.726C83.4082 75.6474 84.0805 75.8174 84.6772 76.148C85.2739 76.4786 85.7746 76.9586 86.1301 77.5408C86.0118 76.6436 85.5716 75.82 84.8913 75.2233C84.211 74.6266 83.3371 74.2974 82.4322 74.297H74.7998V75.6546ZM82.726 78.8879H74.7998V77.5341H82.4322C83.3371 77.5344 84.211 77.8636 84.8913 78.4604C85.5716 79.0571 86.0118 79.8807 86.1301 80.7779C85.7749 80.195 85.2745 79.7144 84.6778 79.383C84.0811 79.0517 83.4085 78.8811 82.726 78.8879ZM50.6672 54.0216C51.3722 54.0216 52.0563 54.034 52.7088 54.0579V55.177H42.4338C42.4338 54.5387 46.1183 54.0216 50.6672 54.0216ZM49.5223 56.2493H43.1722L42.8392 56.2512C41.3404 56.2512 40.1088 57.6642 39.918 59.495C40.4484 58.3664 41.4511 57.6031 42.6026 57.6031L49.5223 57.6031H50.6672H51.564H52.7089V56.2493H51.564H50.6672H49.5987H49.5223ZM52.7089 59.6515H42.8392C41.3404 59.6515 40.1069 61.0663 39.918 62.8971C40.4484 61.7685 41.4511 61.0052 42.6026 61.0052H52.7089V59.6515ZM47.9835 63.0536H46.8386L42.8392 63.0536C41.3404 63.0536 40.1069 64.4684 39.918 66.2993C40.4484 65.1706 41.4511 64.4074 42.6026 64.4074H46.8386H46.9178H47.9835H51.564H52.7089V63.0536H51.564H47.9835ZM52.7089 66.4557H42.8392C41.3404 66.4557 40.1069 67.8706 39.918 69.7014C40.4484 68.5727 41.4511 67.8095 42.6026 67.8095H52.7089V66.4557ZM42.8392 69.6928H52.7089V71.0466H42.6026C41.4511 71.0466 40.4484 71.8098 39.918 72.9385C40.1069 71.1086 41.3404 69.6928 42.8392 69.6928ZM52.7089 72.9308H42.8392C41.3404 72.9308 40.1069 74.3457 39.918 76.1765C40.4484 75.0469 41.4511 74.2837 42.6026 74.2837H52.7089V72.9308ZM42.8392 76.1679H52.7089V77.5217H42.6026C41.4511 77.5217 40.4484 78.2849 39.918 79.4145C40.1069 77.5837 41.3404 76.1679 42.8392 76.1679ZM52.7089 79.4059H42.8392C41.3404 79.4059 40.1069 80.8208 39.918 82.6516C40.4484 81.523 41.4511 80.7597 42.6026 80.7597H52.7089V79.4059ZM38.5346 85.6989C37.6782 86.0731 36.9229 86.4031 36.3174 86.7483C34.8367 87.5325 34 88 34 88C34 88 34.9083 87.6918 36.4805 87.1137C36.9815 86.9097 37.5667 86.7337 38.2117 86.5396C38.5715 86.4314 38.9498 86.3176 39.3427 86.1902C40.1623 85.9095 41.0873 85.6721 42.0798 85.4173C42.4066 85.3334 42.7406 85.2477 43.0806 85.1579C43.3683 85.0874 43.6614 85.0088 43.9593 84.9289C44.0161 84.9137 44.073 84.8984 44.1301 84.8831L45.2368 84.6599L47.5522 84.1695C47.8833 84.1037 48.221 84.0483 48.5616 83.9949C48.7427 83.9664 48.9248 83.9386 49.1079 83.9106C49.4091 83.8647 49.7129 83.8183 50.0184 83.7678C50.2476 83.7332 50.4779 83.6959 50.7095 83.6584C50.8984 83.6278 51.0881 83.5971 51.2787 83.5675C51.3248 83.5599 51.3712 83.5534 51.4177 83.5469C51.4474 83.5427 51.4771 83.5386 51.5068 83.5341C51.8664 83.4807 52.2299 83.432 52.5982 83.3996L52.7089 83.3872L54.6475 83.1658L55.2743 83.0943C55.7936 83.0461 56.3183 83.0127 56.8459 82.9791C57.2382 82.9542 57.6321 82.9291 58.0267 82.8978H58.0887L59.4196 82.8023C59.6831 82.791 59.9474 82.7864 60.2121 82.7818C60.4163 82.7782 60.6206 82.7746 60.8249 82.768L63.6489 82.7022L66.034 82.7585L66.4834 82.769C66.698 82.7758 66.9126 82.7801 67.1269 82.7845C67.2136 82.7863 67.3003 82.788 67.3869 82.7899L67.3893 82.79C67.5612 82.7938 67.734 82.7976 67.904 82.8052L69.2873 82.9006C69.4082 82.9102 69.5282 82.918 69.6482 82.9259C69.7082 82.9298 69.7682 82.9337 69.8283 82.9378L70.2958 82.9703C70.4855 82.9821 70.6746 82.9962 70.8635 83.0102C70.9955 83.0201 71.1274 83.0299 71.2593 83.039C71.3179 83.0431 71.3765 83.0472 71.4352 83.0513C71.631 83.0649 71.8274 83.0786 72.0226 83.0962L73.3334 83.246L74.7044 83.4034C75.4521 83.4667 76.1799 83.5878 76.8999 83.7077C77.027 83.7289 77.1537 83.75 77.2803 83.7707C77.5724 83.8186 77.8622 83.8625 78.1493 83.9061C78.6922 83.9885 79.2255 84.0694 79.7465 84.1724L82.062 84.6627L83.1687 84.886L84.2182 85.1598C84.5852 85.2575 84.9452 85.3501 85.2967 85.4405C86.26 85.6884 87.1591 85.9197 87.9609 86.193C88.3575 86.3216 88.7392 86.4364 89.1011 86.5452C89.7464 86.7393 90.3292 86.9145 90.823 87.1156C92.3905 87.6899 93.3035 88 93.3035 88C93.3035 88 92.4716 87.5316 90.9843 86.7435C90.4049 86.4131 89.6943 86.1018 88.8916 85.7501C88.6792 85.657 88.4603 85.5611 88.2356 85.4613L87.4028 85.0959L86.9668 84.9051L86.9402 84.8952C86.7989 84.8431 86.6553 84.79 86.5107 84.7352C86.1599 84.6096 85.7971 84.48 85.4245 84.347C85.1406 84.2455 84.851 84.1421 84.5569 84.0369L83.5074 83.6667C83.4043 83.6362 83.3007 83.6057 83.1967 83.575C82.9358 83.4981 82.6719 83.4202 82.4045 83.3404L80.0767 82.686C79.525 82.5415 78.9584 82.4187 78.3828 82.294C78.1223 82.2375 77.8598 82.1806 77.5961 82.1212H77.5837C76.7318 81.9304 75.8598 81.7386 74.962 81.6174L74.8008 81.5926L73.9173 81.4591C73.7746 80.6543 73.3715 79.9186 72.7699 79.3653C72.1683 78.812 71.4016 78.4716 70.5877 78.3966C70.4723 78.3803 70.355 78.3803 70.2367 78.3803H70.2366H57.6546C56.7957 78.381 55.9633 78.6783 55.2982 79.2219C54.6331 79.7655 54.1761 80.522 54.0045 81.3637L52.3234 81.6193C51.4257 81.7434 50.5546 81.9342 49.7017 82.125C49.4198 82.1894 49.1389 82.25 48.8598 82.3103C48.3701 82.416 47.886 82.5205 47.412 82.6421C47.3804 82.6506 47.3472 82.6589 47.3134 82.6673C47.2829 82.6749 47.2519 82.6826 47.2212 82.6907L44.8933 83.3462L43.7904 83.6715L43.1693 83.8919L42.8755 83.9959L42.7458 84.0417L40.7928 84.74L40.7308 84.7629L40.3349 84.9089L40.0925 85.0148L39.9017 85.1007L39.066 85.4661C38.885 85.5458 38.7077 85.6233 38.5346 85.6989Z" fill="black"/>
</g>
<defs>
<clipPath id="clip0_109_30">
<rect width="128" height="128" rx="64" fill="white"/>
</clipPath>
</defs>
</svg>
