<svg width="128" height="128" viewBox="0 0 128 128" fill="none" xmlns="http://www.w3.org/2000/svg">
<rect width="128" height="128" fill="white"/>
<path fill-rule="evenodd" clip-rule="evenodd" d="M63.9939 12C73.8121 12 81.773 13.1161 81.773 14.4937H46.2085C46.2085 13.1161 54.1735 12 63.9939 12ZM78.8819 19.8291H50.4402C48.9684 19.8167 47.5187 20.1864 46.2326 20.9022C44.9466 21.6179 43.8683 22.6552 43.1032 23.9125C43.3584 21.9764 44.3083 20.199 45.7762 18.9111C47.244 17.6232 49.1298 16.9124 51.0826 16.9112H78.2394C78.4948 16.9112 78.748 16.9236 78.9972 16.9462C80.812 17.1194 82.5145 17.9031 83.8262 19.1693C85.138 20.4354 85.9815 22.109 86.2188 23.9166C85.4544 22.6584 84.3764 21.6202 83.0903 20.9037C81.8042 20.1872 80.3541 19.8169 78.8819 19.8291ZM50.4402 27.1804H78.8819C80.3545 27.1687 81.8048 27.5396 83.091 28.2568C84.3771 28.9741 85.4549 30.0131 86.2188 31.2721C86.1592 30.821 86.0607 30.3759 85.9243 29.9418C85.9228 29.9366 85.9214 29.9314 85.92 29.9261C85.9179 29.9179 85.9159 29.9097 85.9139 29.9015L85.9137 29.9009L85.9135 29.9001L85.9135 29.9L85.9134 29.8999C85.9082 29.8783 85.903 29.8568 85.8955 29.8368C85.8489 29.6918 85.7936 29.5511 85.7382 29.41C85.7275 29.3827 85.7167 29.3555 85.7061 29.3282C85.6948 29.3004 85.6845 29.2716 85.6742 29.2427C85.6639 29.2139 85.6536 29.1851 85.6422 29.1573C85.0736 27.8252 84.1562 26.6711 82.9868 25.8166C81.8173 24.962 80.4391 24.4387 78.9972 24.3017C78.748 24.277 78.4948 24.2646 78.2394 24.2646H51.0826C49.1298 24.2658 47.244 24.9766 45.7762 26.2645C44.3083 27.5524 43.3584 29.3298 43.1032 31.2659C43.8679 30.0081 44.946 28.9703 46.2321 28.2541C47.5182 27.538 48.9682 27.168 50.4402 27.1804ZM67.1444 31.5954H51.0826C49.1292 31.5967 47.2429 32.308 45.7749 33.5968C44.307 34.8856 43.3575 36.664 43.1032 38.6008C43.868 37.3432 44.9462 36.3057 46.2323 35.5899C47.5184 34.8741 48.9684 34.5046 50.4402 34.5174H60.943H66.3538H66.502H74.1457H77.3292H77.8523H78.8819C80.3532 34.5045 81.8027 34.8737 83.0887 35.5887C84.3747 36.3037 85.4532 37.3401 86.2188 38.5967C85.9637 36.6606 85.0137 34.8832 83.5459 33.5953C82.078 32.3073 80.1922 31.5966 78.2394 31.5954H77.8523H77.3292H74.1457H67.1444ZM84.9494 44.3285C84.9643 44.346 84.9792 44.3635 84.9956 44.3789C85.466 44.8507 85.8768 45.3784 86.2188 45.9501C85.9815 44.1425 85.138 42.4688 83.8262 41.2027C82.5145 39.9366 80.812 39.1529 78.9972 38.9797C78.748 38.9447 78.4948 38.9447 78.2395 38.9447H78.2394H51.0826C49.1298 38.9459 47.244 39.6566 45.7762 40.9446C44.3083 42.2325 43.3584 44.0099 43.1032 45.9459C43.8679 44.6881 44.946 43.6503 46.2321 42.9342C47.5182 42.2181 48.9682 41.8481 50.4402 41.8605H78.8819C79.4963 41.8647 80.1085 41.9338 80.7084 42.0664C82.2201 42.3815 83.6179 43.101 84.7527 44.1483C84.7794 44.1738 84.8134 44.202 84.8438 44.2273L84.8439 44.2274L84.844 44.2274L84.8442 44.2277C84.8675 44.247 84.8887 44.2646 84.903 44.278C84.9195 44.2934 84.9344 44.3109 84.9493 44.3284L84.9494 44.3285ZM64.6734 45.9192H51.0826C49.1292 45.9205 47.2429 46.6318 45.7749 47.9206C44.307 49.2094 43.3575 50.9878 43.1032 52.9246C43.8683 51.6673 44.9466 50.63 46.2326 49.9143C47.5187 49.1985 48.9684 48.8288 50.4402 48.8412H58.472H63.8874H64.0309H66.2178H69.1398V48.8474H78.8819C80.3518 48.8359 81.7996 49.2058 83.0841 49.9207C84.3685 50.6356 85.4457 51.6713 86.2106 52.9266C86.1539 52.504 86.063 52.0867 85.9387 51.6788C85.9353 51.6673 85.9323 51.6565 85.9295 51.6462C85.9258 51.6326 85.9225 51.6195 85.9191 51.6061L85.9189 51.6055L85.9189 51.6052C85.9109 51.574 85.9024 51.5402 85.8873 51.4914C85.8704 51.437 85.8495 51.3842 85.8286 51.3315L85.8286 51.3315L85.8286 51.3314L85.8285 51.3313L85.8285 51.3312C85.8162 51.3002 85.804 51.2693 85.7925 51.2381C85.7471 51.1126 85.7032 50.9967 85.6538 50.8663L85.6538 50.8662L85.634 50.8139C85.5874 50.6908 85.5287 50.5717 85.4699 50.4524C85.4559 50.424 85.4419 50.3955 85.4281 50.3671C85.4129 50.3367 85.3989 50.3064 85.385 50.2764C85.3669 50.2371 85.3491 50.1985 85.3292 50.1611C85.2981 50.1025 85.2656 50.0494 85.2312 49.9933L85.2312 49.9933C85.2065 49.9529 85.1809 49.9111 85.1542 49.8646C85.0904 49.7534 85.0306 49.6505 84.9627 49.5475C84.9522 49.5302 84.9405 49.5137 84.9277 49.4981C84.8062 49.3169 84.6806 49.1398 84.5467 48.9689L84.539 48.9598L84.5338 48.9539L84.5281 48.9473C84.52 48.9381 84.5119 48.9289 84.5038 48.9198L84.5036 48.9196L84.5035 48.9194L84.5032 48.9192C84.4819 48.8951 84.4604 48.8709 84.4397 48.8453C84.4165 48.8181 84.3935 48.7909 84.3705 48.7636L84.3704 48.7635C84.2764 48.6524 84.1822 48.5409 84.0814 48.4335C83.6731 48.0027 83.2187 47.6181 82.7264 47.2865C82.6537 47.2359 82.5749 47.1866 82.4966 47.1375C82.4728 47.1226 82.4492 47.1078 82.4258 47.0929C81.3845 46.4572 80.2118 46.0677 78.9972 45.9542C78.748 45.9315 78.4947 45.9192 78.2394 45.9192H69.3066H69.1398H66.2178H64.6734ZM50.4402 55.8363H78.8819C80.354 55.8253 81.8037 56.1967 83.0891 56.9143C84.3746 57.632 85.4516 58.6711 86.2147 59.93C86.1287 59.2888 85.9655 58.6603 85.7287 58.0582C85.716 58.0251 85.704 57.9916 85.6919 57.9581C85.6747 57.9103 85.6575 57.8624 85.6381 57.8152C85.5898 57.6874 85.5284 57.564 85.4673 57.4412L85.4672 57.441L85.4671 57.4408L85.4671 57.4407L85.467 57.4407L85.467 57.4406L85.452 57.4104L85.4407 57.3875L85.4322 57.3704C85.4191 57.3434 85.4068 57.317 85.3948 57.2911C85.3747 57.2477 85.3553 57.2057 85.3334 57.1645C85.2698 57.0287 85.1846 56.8972 85.1007 56.7676C85.0841 56.742 85.0676 56.7164 85.0512 56.6909C85.0477 56.6853 85.0442 56.6796 85.0407 56.6738C85.0381 56.6696 85.0356 56.6653 85.0331 56.661L85.031 56.6574C85.024 56.6455 85.0172 56.6335 85.0104 56.6215L85.0103 56.6212L85.0101 56.6209L85.0101 56.6209L85.01 56.6208C84.9966 56.5971 84.9833 56.5735 84.9689 56.5508C84.3076 55.5414 83.4273 54.6939 82.3934 54.0715C81.3596 53.449 80.1987 53.0676 78.9972 52.9555C78.748 52.9205 78.4948 52.9205 78.2394 52.9205H51.0826C49.1298 52.9217 47.244 53.6324 45.7762 54.9204C44.3083 56.2083 43.3584 57.9857 43.1032 59.9218C43.8677 58.6638 44.9458 57.6259 46.232 56.9097C47.5181 56.1936 48.9682 55.8237 50.4402 55.8363ZM84.415 64.8227C84.3774 64.7908 84.3413 64.7579 84.3052 64.725C84.2365 64.6625 84.1679 64.6 84.0896 64.5447C84.0812 64.5378 84.0722 64.5316 84.0628 64.5261C83.2381 63.9144 82.3095 63.4568 81.322 63.1753C80.5294 62.943 79.7078 62.8245 78.8819 62.8232H50.4402C48.9684 62.8108 47.5187 63.1805 46.2326 63.8963C44.9466 64.612 43.8683 65.6492 43.1032 66.9066C43.3584 64.9705 44.3083 63.1931 45.7762 61.9052C47.244 60.6172 49.1298 59.9065 51.0826 59.9053H78.2394C78.4948 59.9053 78.748 59.9176 78.9972 59.9403C80.812 60.1135 82.5145 60.8972 83.8262 62.1633C85.138 63.4295 85.9815 65.1031 86.2188 66.9107C85.7405 66.1173 85.1305 65.4111 84.415 64.8227ZM78.8819 69.8059C79.4962 69.8112 80.1083 69.8802 80.7084 70.0118C81.845 70.2451 82.9211 70.7107 83.8693 71.3793C84.8175 72.048 85.6174 72.9053 86.2188 73.8976C85.9815 72.09 85.138 70.4163 83.8262 69.1502C82.5145 67.8841 80.812 67.1004 78.9972 66.9272C78.748 66.9024 78.4948 66.8901 78.2394 66.8901H51.0826C49.1298 66.8913 47.244 67.6021 45.7762 68.89C44.3083 70.1779 43.3584 71.9553 43.1032 73.8914C43.8679 72.6335 44.946 71.5958 46.2321 70.8796C47.5182 70.1635 48.9682 69.7935 50.4402 69.8059H78.8819ZM61.5846 73.877H51.0826C49.128 73.8786 47.2406 74.5911 45.7725 75.8815C44.3043 77.172 43.3556 78.9523 43.1032 80.8906C43.8683 79.6333 44.9466 78.596 46.2326 77.8803C47.5187 77.1645 48.9684 76.7948 50.4402 76.8072H55.3775H57.298H57.4415H60.7986H60.9421H73.9151H77.3292H77.4157H78.8819C80.3524 76.7939 81.8012 77.162 83.087 77.8754C84.3729 78.5889 85.4519 79.6235 86.2188 80.8783C85.9637 78.9422 85.0137 77.1648 83.5459 75.8769C82.078 74.5889 80.1922 73.8782 78.2394 73.877H77.4157H77.3292H73.9151H61.5846ZM50.4402 83.7859H78.8819C80.3543 83.7739 81.8045 84.1445 83.0906 84.8614C84.3768 85.5782 85.4547 86.6168 86.2188 87.8754C85.9772 86.0696 85.1324 84.3983 83.8215 83.133C82.5106 81.8677 80.8105 81.0826 78.9972 80.905C78.748 80.87 78.4948 80.87 78.2394 80.87H51.0826C49.1297 80.8708 47.2437 81.5814 45.7757 82.8694C44.3078 84.1574 43.358 85.9351 43.1032 87.8713C43.8679 86.6135 44.946 85.5757 46.2321 84.8596C47.5182 84.1434 48.9682 83.7735 50.4402 83.7859ZM78.8819 90.7748H50.4402C48.9684 90.7624 47.5187 91.1321 46.2326 91.8479C44.9466 92.5636 43.8683 93.6008 43.1032 94.8582C43.3584 92.9221 44.3083 91.1447 45.7762 89.8568C47.244 88.5688 49.1298 87.8581 51.0826 87.8569H78.2394C78.4948 87.8569 78.748 87.8692 78.9972 87.8919C80.812 88.0651 82.5145 88.8488 83.8262 90.115C85.138 91.3811 85.9815 93.0547 86.2188 94.8623C85.4543 93.6042 84.3762 92.5661 83.0901 91.8496C81.8041 91.1332 80.354 90.7628 78.8819 90.7748ZM88.0618 31.3339C89.4723 31.2844 90.9447 31.2577 92.4685 31.2577C102.289 31.2577 110.25 32.3737 110.25 33.7514H88.0618V31.3339ZM105.17 38.9694H88.0618V36.0474H104.535C106.489 36.0481 108.375 36.7586 109.843 38.0466C111.311 39.3346 112.262 41.1122 112.517 43.0487C111.751 41.7904 110.67 40.7529 109.382 40.0378C108.094 39.3227 106.643 38.9545 105.17 38.9694ZM105.17 46.3125H96.661V46.3145H93.5722H91.1506H88.0618V43.3925H91.1506H93.5722H96.4942V43.3905H104.525C106.478 43.3912 108.365 44.1017 109.833 45.3897C111.301 46.6777 112.251 48.4554 112.507 50.3918C111.741 49.1352 110.662 48.0988 109.376 47.3838C108.09 46.6688 106.641 46.2996 105.17 46.3125ZM105.17 53.6577H88.0618V50.7357H104.535C106.489 50.7364 108.375 51.4469 109.843 52.7349C111.311 54.0229 112.262 55.8005 112.517 57.7369C111.751 56.4786 110.671 55.441 109.383 54.7259C108.095 54.0107 106.643 53.6426 105.17 53.6577ZM88.0618 60.9987H105.17C106.643 60.9841 108.095 61.3526 109.383 62.0681C110.671 62.7836 111.751 63.8215 112.517 65.0801C112.262 63.1436 111.311 61.366 109.843 60.078C108.375 58.79 106.489 58.0795 104.535 58.0788H88.0618V60.9987ZM105.17 67.9876H88.0618V65.0698H104.535C106.488 65.071 108.374 65.7817 109.842 67.0697C111.31 68.3576 112.26 70.135 112.515 72.071C111.749 70.8125 110.669 69.7745 109.382 69.0587C108.094 68.3429 106.643 67.9738 105.17 67.9876ZM88.0618 74.9766H105.17C106.643 74.9615 108.095 75.3296 109.383 76.0448C110.671 76.7599 111.751 77.7975 112.517 79.0559C112.262 77.1195 111.311 75.3418 109.843 74.0538C108.375 72.7658 106.489 72.0553 104.535 72.0546H88.0618V74.9766ZM105.17 81.9552H88.0618V79.0414H104.535C106.489 79.0422 108.375 79.7527 109.843 81.0407C111.311 82.3286 112.262 84.1063 112.517 86.0427C111.751 84.7831 110.672 83.7441 109.384 83.0275C108.096 82.311 106.643 81.9414 105.17 81.9552ZM88.0618 88.9565H105.17C106.642 88.9408 108.093 89.3077 109.381 90.0214C110.669 90.735 111.75 91.7709 112.517 93.0276C112.262 91.0911 111.311 89.3135 109.843 88.0255C108.375 86.7375 106.489 86.027 104.535 86.0263H88.0618V88.9565ZM105.17 95.9351H88.0618V93.0131H104.535C106.489 93.0139 108.375 93.7244 109.843 95.0123C111.311 96.3003 112.262 98.078 112.517 100.014C111.75 98.7564 110.67 97.719 109.382 97.0039C108.094 96.2888 106.643 95.9205 105.17 95.9351ZM35.9742 42.2641C37.496 42.2641 38.9724 42.2909 40.3809 42.3423V44.7578H18.2033C18.2033 43.3802 26.156 42.2641 35.9742 42.2641ZM33.5032 47.0723H19.7972L19.0785 47.0764C15.8435 47.0764 13.1851 50.1261 12.7732 54.0777C13.9182 51.6417 16.0824 49.9943 18.5678 49.9943L33.5032 49.9943H35.9743H37.9099H40.3809V47.0723H37.9099H35.9743H33.668H33.5032ZM40.381 54.4154H19.0785C15.8435 54.4154 13.181 57.4692 12.7732 61.4209C13.9182 58.9848 16.0824 57.3375 18.5678 57.3375H40.381V54.4154ZM30.1817 61.7586H27.7107L19.0785 61.7586C15.8435 61.7586 13.181 64.8124 12.7732 68.764C13.9182 66.3279 16.0824 64.6806 18.5678 64.6806H27.7107H27.8816H30.1817H37.9099H40.381V61.7586H37.9099H30.1817ZM40.381 69.1017H19.0785C15.8435 69.1017 13.181 72.1555 12.7732 76.1071C13.9182 73.671 16.0824 72.0237 18.5678 72.0237H40.381V69.1017ZM19.0785 76.0886H40.381V79.0106H18.5678C16.0824 79.0106 13.9182 80.6579 12.7732 83.094C13.181 79.1444 15.8435 76.0886 19.0785 76.0886ZM40.381 83.0775H19.0785C15.8435 83.0775 13.181 86.1313 12.7732 90.0829C13.9182 87.6448 16.0824 85.9974 18.5678 85.9974H40.381V83.0775ZM19.0785 90.0644H40.381V92.9864H18.5678C16.0824 92.9864 13.9182 94.6337 12.7732 97.0718C13.181 93.1202 15.8435 90.0644 19.0785 90.0644ZM40.381 97.0533H19.0785C15.8435 97.0533 13.181 100.107 12.7732 104.059C13.9182 101.623 16.0824 99.9753 18.5678 99.9753H40.381V97.0533ZM9.78732 110.636C7.93905 111.443 6.30872 112.156 5.00181 112.901C1.80593 114.594 0 115.603 0 115.603C0 115.603 1.96036 114.937 5.35393 113.69C6.43528 113.249 7.69824 112.869 9.09051 112.451C9.86699 112.217 10.6837 111.971 11.5315 111.696C13.3007 111.091 15.2972 110.578 17.4394 110.028C18.1446 109.847 18.8656 109.662 19.5995 109.468C20.2205 109.316 20.8531 109.146 21.496 108.974C21.6185 108.941 21.7414 108.908 21.8646 108.875L24.2533 108.393L29.251 107.335C29.9655 107.193 30.6945 107.073 31.4296 106.958C31.8204 106.897 32.2136 106.837 32.6087 106.776C33.2589 106.677 33.9144 106.577 34.574 106.468C35.0686 106.393 35.5657 106.313 36.0657 106.232C36.4732 106.166 36.8827 106.099 37.2942 106.036C37.3936 106.019 37.4938 106.005 37.5942 105.991C37.6582 105.982 37.7223 105.973 37.7864 105.963C38.5627 105.848 39.3472 105.743 40.1421 105.673L40.381 105.646L44.5653 105.169L45.9182 105.014C47.0391 104.91 48.1715 104.838 49.3104 104.766C50.157 104.712 51.0072 104.658 51.859 104.59H51.9928L54.8654 104.384C55.434 104.36 56.0045 104.35 56.576 104.34C57.0165 104.332 57.4575 104.324 57.8986 104.31L63.9938 104.168L69.1418 104.289L70.1117 104.312C70.575 104.327 71.0382 104.336 71.5007 104.345C71.6879 104.349 71.8749 104.353 72.0618 104.357L72.067 104.357C72.438 104.366 72.811 104.374 73.1779 104.39L76.1637 104.596C76.4245 104.617 76.6835 104.634 76.9425 104.651C77.0721 104.659 77.2016 104.668 77.3313 104.676L78.3403 104.746C78.7499 104.772 79.1581 104.802 79.5656 104.833C79.8507 104.854 80.1354 104.875 80.4201 104.895C80.5465 104.904 80.673 104.913 80.7997 104.921C81.2222 104.951 81.6461 104.98 82.0675 105.018L84.8968 105.342L87.8559 105.681C89.4698 105.818 91.0405 106.079 92.5947 106.338C92.8688 106.384 93.1425 106.429 93.4157 106.474C94.0461 106.577 94.6716 106.672 95.2913 106.766C96.463 106.944 97.6141 107.119 98.7387 107.341L103.736 108.399L106.125 108.881L108.39 109.472C109.182 109.683 109.959 109.883 110.718 110.078C112.797 110.613 114.738 111.113 116.468 111.702C117.325 111.98 118.148 112.228 118.93 112.463C120.322 112.881 121.58 113.26 122.646 113.694C126.029 114.933 128 115.603 128 115.603C128 115.603 126.204 114.592 122.994 112.891C121.744 112.177 120.21 111.505 118.477 110.746C118.019 110.546 117.546 110.339 117.062 110.123L115.264 109.334L114.323 108.923L114.265 108.901C113.961 108.789 113.65 108.674 113.338 108.556C112.581 108.285 111.798 108.005 110.994 107.718C110.381 107.499 109.756 107.276 109.121 107.049L106.856 106.25C106.634 106.184 106.41 106.118 106.185 106.052C105.622 105.886 105.053 105.718 104.476 105.545L99.4512 104.133C98.2606 103.821 97.0377 103.556 95.7953 103.287C95.2329 103.165 94.6665 103.042 94.0973 102.914H94.0705C92.2317 102.502 90.3496 102.088 88.4118 101.827L88.0638 101.773L86.157 101.485C85.849 99.7476 84.9789 98.1598 83.6804 96.9656C82.382 95.7713 80.7271 95.0366 78.9704 94.8746C78.7213 94.8396 78.4681 94.8396 78.2128 94.8396H78.2126H51.0559C49.2019 94.8411 47.4053 95.4827 45.9698 96.656C44.5342 97.8292 43.5479 99.4622 43.1774 101.279L39.549 101.831C37.6113 102.098 35.7313 102.51 33.8904 102.922C33.2819 103.061 32.6756 103.192 32.0733 103.322C31.0163 103.55 29.9714 103.776 28.9483 104.038C28.88 104.057 28.8084 104.074 28.7354 104.093C28.6696 104.109 28.6028 104.126 28.5364 104.143L23.512 105.558L21.1315 106.26L19.791 106.736L19.1568 106.96L18.8767 107.059L14.6615 108.566L14.5277 108.616L13.6731 108.931L13.1501 109.159L12.7382 109.345L10.9344 110.133C10.5437 110.305 10.1611 110.473 9.78732 110.636Z" fill="black"/>
</svg>
