<svg width="128" height="32" viewBox="0 0 128 32" fill="none" xmlns="http://www.w3.org/2000/svg">
<g clip-path="url(#clip0_109_33)">
<path d="M53.3977 17.8125V13.5114H54.1648C54.4261 13.2917 54.6705 12.9792 54.8977 12.5739C55.125 12.1686 55.3182 11.6212 55.4773 10.9318C55.6364 10.2424 55.7462 9.35795 55.8068 8.27841L56.0795 3.36364H63.2557V13.5114H64.5739V17.7955H62.892V15H55.0795V17.8125H53.3977ZM56.233 13.5114H61.5739V4.875H57.6705L57.4886 8.27841C57.4394 9.10038 57.358 9.83902 57.2443 10.4943C57.1345 11.1496 56.9924 11.7292 56.8182 12.233C56.6477 12.733 56.4527 13.1591 56.233 13.5114ZM66.4972 15V3.36364H70.6449C71.5502 3.36364 72.3002 3.52841 72.8949 3.85795C73.4896 4.1875 73.9347 4.63826 74.2301 5.21023C74.5256 5.77841 74.6733 6.41856 74.6733 7.13068C74.6733 7.84659 74.5237 8.49053 74.2244 9.0625C73.929 9.63068 73.482 10.0814 72.8835 10.4148C72.2888 10.7443 71.5407 10.9091 70.6392 10.9091H67.7869V9.42045H70.4801C71.0521 9.42045 71.5161 9.32197 71.8722 9.125C72.2282 8.92424 72.4896 8.65152 72.6562 8.30682C72.8229 7.96212 72.9062 7.57008 72.9062 7.13068C72.9062 6.69129 72.8229 6.30114 72.6562 5.96023C72.4896 5.61932 72.2263 5.35227 71.8665 5.15909C71.5104 4.96591 71.0407 4.86932 70.4574 4.86932H68.2528V15H66.4972ZM78.4872 3.36364V15H76.7315V3.36364H78.4872ZM81.044 3.36364H83.1747L86.8793 12.4091H87.0156L90.7202 3.36364H92.8509V15H91.1804V6.57955H91.0724L87.6406 14.983H86.2543L82.8224 6.57386H82.7145V15H81.044V3.36364ZM95.4034 15V3.36364H102.659V4.875H97.1591V8.05682H99.7614C100.625 8.05682 101.358 8.19697 101.96 8.47727C102.566 8.75758 103.028 9.15341 103.347 9.66477C103.669 10.1761 103.83 10.7784 103.83 11.4716C103.83 12.1648 103.669 12.7765 103.347 13.3068C103.028 13.8371 102.566 14.2519 101.96 14.5511C101.358 14.8504 100.625 15 99.7614 15H95.4034ZM97.1591 13.5227H99.7614C100.261 13.5227 100.684 13.4242 101.028 13.2273C101.377 13.0303 101.64 12.7746 101.818 12.4602C102 12.1458 102.091 11.8087 102.091 11.4489C102.091 10.9261 101.89 10.4773 101.489 10.1023C101.087 9.72348 100.511 9.53409 99.7614 9.53409H97.1591V13.5227ZM106.727 15.1591V13.6136H107.426C107.718 13.6136 107.958 13.5644 108.148 13.4659C108.341 13.3674 108.498 13.2348 108.619 13.0682C108.744 12.8977 108.848 12.7121 108.932 12.5114L109.097 12.0966L105.006 3.36364H106.869L109.92 10.0909L112.636 3.36364H114.477L110.455 12.983C110.284 13.3693 110.087 13.7273 109.864 14.0568C109.644 14.3864 109.35 14.6534 108.983 14.858C108.616 15.0587 108.129 15.1591 107.523 15.1591H106.727ZM115.257 17.8125V13.5114H116.024C116.286 13.2917 116.53 12.9792 116.757 12.5739C116.984 12.1686 117.178 11.6212 117.337 10.9318C117.496 10.2424 117.606 9.35795 117.666 8.27841L117.939 3.36364H125.115V13.5114H126.433V17.7955H124.751V15H116.939V17.8125H115.257ZM118.092 13.5114H123.433V4.875H119.53L119.348 8.27841C119.299 9.10038 119.217 9.83902 119.104 10.4943C118.994 11.1496 118.852 11.7292 118.678 12.233C118.507 12.733 118.312 13.1591 118.092 13.5114Z" fill="black"/>
<path d="M59.3849 20.2727V29H58.5923V20.9886H53.892V29H53.0952V20.2727H59.3849ZM62.8435 29V20.2727H65.6602C66.2795 20.2727 66.7966 20.392 67.2114 20.6307C67.629 20.8665 67.9429 21.1875 68.1531 21.5938C68.3662 22 68.4727 22.4574 68.4727 22.9659C68.4727 23.4744 68.3676 23.9332 68.1574 24.3423C67.9472 24.7486 67.6347 25.071 67.2199 25.3097C66.8051 25.5455 66.2895 25.6634 65.673 25.6634H63.4571V24.9474H65.6517C66.1091 24.9474 66.4884 24.8622 66.7895 24.6918C67.0906 24.5185 67.3151 24.2827 67.4628 23.9844C67.6134 23.6861 67.6886 23.3466 67.6886 22.9659C67.6886 22.5852 67.6134 22.2457 67.4628 21.9474C67.3151 21.6491 67.0892 21.4148 66.7852 21.2443C66.4841 21.0739 66.102 20.9886 65.6389 20.9886H63.6403V29H62.8435ZM78.6983 24.6364C78.6983 25.5455 78.5364 26.3366 78.2125 27.0099C77.8886 27.6804 77.4426 28.2003 76.8744 28.5696C76.3091 28.9361 75.6585 29.1193 74.9227 29.1193C74.1869 29.1193 73.5349 28.9361 72.9668 28.5696C72.4014 28.2003 71.9568 27.6804 71.633 27.0099C71.3119 26.3366 71.1514 25.5455 71.1514 24.6364C71.1514 23.7273 71.3119 22.9375 71.633 22.267C71.9568 21.5937 72.4028 21.0739 72.971 20.7074C73.5392 20.3381 74.1898 20.1534 74.9227 20.1534C75.6585 20.1534 76.3091 20.3381 76.8744 20.7074C77.4426 21.0739 77.8886 21.5937 78.2125 22.267C78.5364 22.9375 78.6983 23.7273 78.6983 24.6364ZM77.9227 24.6364C77.9227 23.8551 77.792 23.1861 77.5307 22.6293C77.2693 22.0696 76.9128 21.642 76.4611 21.3466C76.0094 21.0511 75.4966 20.9034 74.9227 20.9034C74.3517 20.9034 73.8403 21.0511 73.3886 21.3466C72.9369 21.642 72.579 22.0682 72.3148 22.625C72.0534 23.1818 71.9227 23.8523 71.9227 24.6364C71.9227 25.4176 72.0534 26.0866 72.3148 26.6435C72.5761 27.2003 72.9327 27.6278 73.3844 27.9261C73.8361 28.2216 74.3489 28.3693 74.9227 28.3693C75.4966 28.3693 76.0094 28.2216 76.4611 27.9261C76.9156 27.6307 77.2736 27.2045 77.5349 26.6477C77.7963 26.0881 77.9256 25.4176 77.9227 24.6364ZM81.0031 31.1179V28.2841H81.557C81.7587 28.0739 81.9448 27.7969 82.1153 27.4531C82.2857 27.1065 82.4278 26.6605 82.5414 26.1151C82.6579 25.5668 82.7332 24.8821 82.7673 24.0611L82.942 20.2727H87.932V28.2841H88.9548V31.0966H88.1962V29H81.7616V31.1179H81.0031ZM82.5116 28.2841H87.1735V20.9886H83.6664L83.53 24.0611C83.4988 24.7287 83.4406 25.3239 83.3553 25.8466C83.2701 26.3665 83.1565 26.8281 83.0144 27.2315C82.8752 27.6321 82.7076 27.983 82.5116 28.2841ZM96.5351 20.2727V29H95.7382V20.2727H96.5351ZM90.9314 29L93.9143 24.4744L91.2723 20.2727H92.2354L94.6303 24.2273H97.6558L100.051 20.2727H101.014L98.3632 24.4872L101.342 29H100.426L97.7837 24.973H94.4939L91.8391 29H90.9314ZM103.913 29V20.2727H108.975V20.9886H104.71V24.2741H108.707V24.9901H104.71V28.2841H109.061V29H103.913ZM117.296 29L114.292 24.8835H113.035V29H112.238V20.2727H113.035V24.1719H113.823L117.041 20.2727H117.987L114.752 24.206L118.251 29H117.296ZM120.421 20.9886V20.2727H126.749V20.9886H123.984V29H123.187V20.9886H120.421Z" fill="black"/>
<path fill-rule="evenodd" clip-rule="evenodd" d="M19.766 0C22.7985 0 25.2574 0.344729 25.2574 0.770234H14.2725C14.2725 0.344729 16.7327 0 19.766 0ZM24.3645 2.41819H15.5796C15.125 2.41436 14.6772 2.52856 14.28 2.74964C13.8828 2.97071 13.5497 3.29109 13.3134 3.67944C13.3922 3.08145 13.6856 2.53246 14.139 2.13465C14.5924 1.73684 15.1749 1.51732 15.778 1.51693H24.166C24.2449 1.51693 24.3231 1.52075 24.4001 1.52775C24.9606 1.58125 25.4865 1.82332 25.8916 2.21439C26.2968 2.60546 26.5573 3.1224 26.6306 3.68071C26.3945 3.29208 26.0616 2.97142 25.6643 2.75011C25.2671 2.5288 24.8192 2.41443 24.3645 2.41819ZM15.5796 4.68882H24.3645C24.8193 4.68519 25.2673 4.79975 25.6645 5.02129C26.0618 5.24283 26.3947 5.56375 26.6306 5.95262C26.6122 5.81329 26.5818 5.67582 26.5397 5.54174C26.5392 5.54013 26.5388 5.53851 26.5383 5.53688C26.5377 5.53436 26.5371 5.53183 26.5364 5.5293L26.5364 5.5291L26.5363 5.52886L26.5363 5.52882L26.5363 5.52878C26.5347 5.5221 26.5331 5.51547 26.5308 5.5093C26.5164 5.46452 26.4993 5.42107 26.4822 5.37747C26.4789 5.36905 26.4756 5.36064 26.4723 5.3522C26.4688 5.34362 26.4656 5.33471 26.4624 5.32581C26.4592 5.3169 26.456 5.308 26.4525 5.29941C26.2769 4.88796 25.9936 4.5315 25.6323 4.26756C25.2711 4.00362 24.8454 3.84197 24.4001 3.79965C24.3231 3.79202 24.2449 3.7882 24.166 3.7882H15.778C15.1749 3.78858 14.5924 4.00811 14.139 4.40591C13.6856 4.80372 13.3922 5.35271 13.3134 5.95071C13.5496 5.56219 13.8826 5.24165 14.2798 5.02046C14.6771 4.79926 15.1249 4.68499 15.5796 4.68882ZM20.7391 6.05247H15.778C15.1747 6.0529 14.592 6.2726 14.1386 6.67066C13.6852 7.06873 13.3919 7.61802 13.3134 8.21625C13.5496 7.82781 13.8827 7.50737 14.2799 7.28628C14.6771 7.06519 15.125 6.95104 15.5796 6.955H18.8236H20.4949H20.5406H22.9016H23.8849H24.0464H24.3645C24.8189 6.95103 25.2666 7.06505 25.6638 7.28589C26.061 7.50674 26.3942 7.82686 26.6306 8.21498C26.5518 7.61698 26.2584 7.06799 25.805 6.67018C25.3516 6.27238 24.7692 6.05285 24.166 6.05247H24.0464H23.8849H22.9016H20.7391ZM26.2385 9.98539C26.2431 9.99079 26.2477 9.99619 26.2528 10.001C26.3981 10.1467 26.525 10.3097 26.6306 10.4862C26.5573 9.92793 26.2968 9.41099 25.8916 9.01992C25.4865 8.62885 24.9606 8.38678 24.4001 8.33328C24.3231 8.32247 24.2449 8.32247 24.166 8.32247H24.166H15.778C15.1749 8.32285 14.5924 8.54237 14.139 8.94018C13.6856 9.33799 13.3922 9.88698 13.3134 10.485C13.5496 10.0965 13.8826 9.77592 14.2798 9.55473C14.6771 9.33353 15.1249 9.21926 15.5796 9.22309H24.3645C24.5542 9.2244 24.7433 9.24572 24.9286 9.28669C25.3955 9.384 25.8273 9.60625 26.1778 9.92972C26.186 9.93762 26.1965 9.94632 26.2059 9.95413L26.2059 9.95415L26.206 9.95417L26.2061 9.95424C26.2133 9.96022 26.2198 9.96566 26.2242 9.96979C26.2293 9.97456 26.2339 9.97997 26.2385 9.98537L26.2385 9.98539ZM19.9758 10.4767H15.778C15.1747 10.4771 14.592 10.6968 14.1386 11.0949C13.6852 11.493 13.3919 12.0423 13.3134 12.6405C13.5497 12.2521 13.8828 11.9318 14.28 11.7107C14.6772 11.4896 15.125 11.3754 15.5796 11.3792H18.0604H19.7331H19.7774H20.4529H21.3554V11.3811H24.3645C24.8185 11.3776 25.2657 11.4918 25.6624 11.7127C26.0591 11.9335 26.3918 12.2534 26.6281 12.6411C26.6106 12.5106 26.5825 12.3817 26.5441 12.2557C26.5431 12.2521 26.5421 12.2488 26.5413 12.2456C26.5401 12.2414 26.5391 12.2374 26.538 12.2332L26.538 12.233L26.538 12.233C26.5355 12.2233 26.5329 12.2129 26.5282 12.1978C26.523 12.181 26.5166 12.1647 26.5101 12.1484L26.5101 12.1484L26.5101 12.1484L26.5101 12.1483L26.5101 12.1483C26.5063 12.1388 26.5025 12.1292 26.499 12.1196C26.4849 12.0808 26.4714 12.045 26.4561 12.0047L26.4561 12.0047L26.45 11.9886C26.4356 11.9505 26.4175 11.9138 26.3993 11.8769C26.395 11.8681 26.3907 11.8593 26.3864 11.8505C26.3817 11.8412 26.3774 11.8318 26.3731 11.8225C26.3675 11.8104 26.362 11.7985 26.3559 11.7869C26.3462 11.7688 26.3362 11.7524 26.3256 11.7351L26.3256 11.7351C26.318 11.7226 26.31 11.7097 26.3018 11.6953C26.2821 11.661 26.2636 11.6292 26.2426 11.5974C26.2394 11.5921 26.2358 11.587 26.2318 11.5821C26.1943 11.5262 26.1555 11.4715 26.1142 11.4187L26.1118 11.4159L26.1102 11.414L26.1084 11.412C26.1059 11.4092 26.1034 11.4063 26.1009 11.4035L26.1009 11.4035L26.1008 11.4034L26.1007 11.4033C26.0941 11.3959 26.0875 11.3884 26.0811 11.3805C26.074 11.3721 26.0668 11.3637 26.0597 11.3553L26.0597 11.3552C26.0307 11.3209 26.0016 11.2865 25.9704 11.2533C25.8443 11.1202 25.704 11.0014 25.5519 10.899C25.5295 10.8834 25.5051 10.8682 25.4809 10.853C25.4736 10.8484 25.4663 10.8438 25.4591 10.8392C25.1374 10.6429 24.7752 10.5226 24.4001 10.4875C24.3231 10.4805 24.2449 10.4767 24.166 10.4767H21.4069H21.3554H20.4529H19.9758ZM15.5796 13.5398H24.3645C24.8191 13.5364 25.2669 13.6512 25.664 13.8728C26.061 14.0945 26.3936 14.4154 26.6294 14.8043C26.6028 14.6062 26.5524 14.4121 26.4793 14.2261C26.4753 14.2159 26.4716 14.2055 26.4679 14.1952C26.4626 14.1804 26.4572 14.1656 26.4513 14.1511C26.4363 14.1116 26.4174 14.0735 26.3985 14.0355L26.3985 14.0355L26.3984 14.0354L26.3984 14.0354L26.3984 14.0354L26.3984 14.0354L26.3938 14.026L26.3903 14.019L26.3877 14.0137C26.3836 14.0053 26.3798 13.9972 26.3761 13.9892C26.3699 13.9758 26.3639 13.9628 26.3571 13.9501C26.3375 13.9081 26.3112 13.8675 26.2853 13.8275C26.2802 13.8196 26.275 13.8117 26.27 13.8038C26.2689 13.8021 26.2678 13.8003 26.2667 13.7985C26.2659 13.7972 26.2652 13.7959 26.2644 13.7946L26.2637 13.7935C26.2616 13.7898 26.2595 13.7861 26.2574 13.7824L26.2573 13.7823L26.2573 13.7822L26.2573 13.7822L26.2573 13.7821C26.2531 13.7748 26.249 13.7675 26.2446 13.7605C26.0403 13.4487 25.7684 13.187 25.4491 12.9947C25.1297 12.8025 24.7712 12.6847 24.4001 12.65C24.3231 12.6392 24.2449 12.6392 24.166 12.6392H15.778C15.1749 12.6396 14.5924 12.8591 14.139 13.2569C13.6856 13.6547 13.3922 14.2037 13.3134 14.8017C13.5495 14.4132 13.8825 14.0926 14.2798 13.8714C14.677 13.6502 15.1249 13.5359 15.5796 13.5398ZM26.0735 16.3155C26.0619 16.3056 26.0507 16.2955 26.0396 16.2853C26.0183 16.266 25.9972 16.2467 25.973 16.2296C25.9704 16.2275 25.9676 16.2256 25.9647 16.2239C25.71 16.0349 25.4232 15.8936 25.1182 15.8066C24.8733 15.7349 24.6196 15.6983 24.3645 15.6979H15.5796C15.125 15.6941 14.6772 15.8083 14.28 16.0293C13.8828 16.2504 13.5497 16.5708 13.3134 16.9591C13.3922 16.3611 13.6856 15.8121 14.139 15.4143C14.5924 15.0165 15.1749 14.797 15.778 14.7966H24.166C24.2449 14.7966 24.3231 14.8004 24.4001 14.8074C24.9606 14.8609 25.4865 15.103 25.8916 15.4941C26.2968 15.8852 26.5573 16.4021 26.6306 16.9604C26.4829 16.7153 26.2945 16.4972 26.0735 16.3155ZM24.3645 17.8547C24.5542 17.8563 24.7433 17.8776 24.9286 17.9183C25.2797 17.9903 25.6121 18.1341 25.9049 18.3407C26.1978 18.5472 26.4449 18.812 26.6306 19.1185C26.5573 18.5601 26.2968 18.0432 25.8916 17.6521C25.4865 17.2611 24.9606 17.019 24.4001 16.9655C24.3231 16.9579 24.2449 16.954 24.166 16.954H15.778C15.1749 16.9544 14.5924 17.174 14.139 17.5718C13.6856 17.9696 13.3922 18.5186 13.3134 19.1166C13.5496 18.728 13.8826 18.4075 14.2798 18.1863C14.6771 17.9651 15.1249 17.8508 15.5796 17.8547H24.3645ZM19.0218 19.1121H15.778C15.1743 19.1126 14.5913 19.3327 14.1379 19.7312C13.6844 20.1298 13.3914 20.6797 13.3134 21.2784C13.5497 20.8901 13.8828 20.5697 14.28 20.3486C14.6772 20.1275 15.125 20.0133 15.5796 20.0172H17.1046H17.6978H17.7421H18.779H18.8233H22.8303H23.8849H23.9116H24.3645C24.8186 20.0131 25.2661 20.1267 25.6633 20.3471C26.0605 20.5675 26.3938 20.8871 26.6306 21.2746C26.5518 20.6766 26.2584 20.1276 25.805 19.7298C25.3516 19.332 24.7692 19.1125 24.166 19.1121H23.9116H23.8849H22.8303H19.0218ZM15.5796 22.1727H24.3645C24.8192 22.169 25.2672 22.2835 25.6644 22.5049C26.0617 22.7263 26.3946 23.0471 26.6306 23.4358C26.556 22.8781 26.2951 22.3619 25.8902 21.971C25.4853 21.5802 24.9601 21.3377 24.4001 21.2829C24.3231 21.2721 24.2449 21.2721 24.166 21.2721H15.778C15.1748 21.2723 14.5923 21.4918 14.1389 21.8896C13.6855 22.2875 13.3921 22.8365 13.3134 23.4346C13.5496 23.0461 13.8826 22.7255 14.2798 22.5043C14.6771 22.2831 15.1249 22.1689 15.5796 22.1727ZM24.3645 24.3314H15.5796C15.125 24.3275 14.6772 24.4417 14.28 24.6628C13.8828 24.8839 13.5497 25.2043 13.3134 25.5926C13.3922 24.9946 13.6856 24.4456 14.139 24.0478C14.5924 23.65 15.1749 23.4305 15.778 23.4301H24.166C24.2449 23.4301 24.3231 23.4339 24.4001 23.4409C24.9606 23.4944 25.4865 23.7365 25.8916 24.1276C26.2968 24.5186 26.5573 25.0356 26.6306 25.5939C26.3945 25.2053 26.0615 24.8847 25.6643 24.6634C25.267 24.4421 24.8192 24.3277 24.3645 24.3314ZM27.1999 5.9717C27.6355 5.95643 28.0903 5.94816 28.561 5.94816C31.5942 5.94816 34.0531 6.29289 34.0531 6.7184H27.1999V5.9717ZM32.484 8.3301H27.1999V7.42757H32.2881C32.8914 7.4278 33.474 7.64725 33.9275 8.04508C34.3811 8.4429 34.6746 8.99198 34.7534 9.59008C34.5167 9.20145 34.1831 8.881 33.7852 8.66012C33.3874 8.43924 32.939 8.32552 32.484 8.3301ZM32.484 10.5982H29.8559V10.5988H28.9019H28.1539H27.1999V9.6963H28.1539H28.9019H29.8044V9.69566H32.2849C32.8882 9.69589 33.4708 9.91534 33.9244 10.3132C34.3779 10.711 34.6714 11.2601 34.7502 11.8582C34.5137 11.47 34.1806 11.1499 33.7834 10.9291C33.3862 10.7082 32.9385 10.5942 32.484 10.5982ZM32.484 12.8669H27.1999V11.9644H32.2881C32.8914 11.9646 33.474 12.1841 33.9275 12.5819C34.3811 12.9797 34.6746 13.5288 34.7534 14.1269C34.5167 13.7382 34.1831 13.4177 33.7853 13.1968C33.3875 12.976 32.939 12.8623 32.484 12.8669ZM27.1999 15.1344H32.484C32.9391 15.1298 33.3875 15.2437 33.7854 15.4647C34.1832 15.6857 34.5168 16.0062 34.7534 16.395C34.6746 15.7969 34.3811 15.2478 33.9275 14.85C33.474 14.4522 32.8914 14.2327 32.2881 14.2325H27.1999V15.1344ZM32.484 17.2931H27.1999V16.3918H32.2881C32.8913 16.3922 33.4738 16.6117 33.9271 17.0095C34.3805 17.4073 34.6739 17.9563 34.7527 18.5543C34.5162 18.1656 34.1828 17.845 33.785 17.6239C33.3873 17.4028 32.939 17.2888 32.484 17.2931ZM27.1999 19.4517H32.484C32.939 19.4471 33.3875 19.5608 33.7853 19.7817C34.1831 20.0026 34.5167 20.3231 34.7534 20.7117C34.6746 20.1136 34.3811 19.5645 33.9275 19.1667C33.474 18.7689 32.8914 18.5494 32.2881 18.5492H27.1999V19.4517ZM32.484 21.6073H27.1999V20.7073H32.2881C32.8914 20.7075 33.474 20.9269 33.9275 21.3248C34.3811 21.7226 34.6746 22.2717 34.7534 22.8698C34.5169 22.4807 34.1835 22.1598 33.7856 21.9385C33.3878 21.7171 32.9393 21.603 32.484 21.6073ZM27.1999 23.7698H32.484C32.9388 23.7649 33.387 23.8782 33.7848 24.0987C34.1826 24.3191 34.5164 24.639 34.7534 25.0272C34.6746 24.4291 34.3811 23.88 33.9275 23.4822C33.474 23.0844 32.8914 22.8649 32.2881 22.8647H27.1999V23.7698ZM32.484 25.9253H27.1999V25.0227H32.2881C32.8914 25.023 33.474 25.2424 33.9275 25.6402C34.3811 26.0381 34.6746 26.5871 34.7534 27.1852C34.5166 26.7967 34.183 26.4762 33.7852 26.2554C33.3874 26.0345 32.939 25.9207 32.484 25.9253ZM11.1115 9.34775C11.5815 9.34775 12.0375 9.35602 12.4726 9.37192V10.118H5.62251C5.62251 9.69248 8.07886 9.34775 11.1115 9.34775ZM10.3482 10.8329H6.1148L5.89283 10.8342C4.89363 10.8342 4.07251 11.7761 3.9453 12.9967C4.29894 12.2442 4.96741 11.7354 5.7351 11.7354L10.3482 11.7354H11.1115H11.7093H12.4726V10.8329H11.7093H11.1115H10.3991H10.3482ZM12.4726 13.101H5.89283C4.89363 13.101 4.07124 14.0442 3.9453 15.2647C4.29894 14.5123 4.96741 14.0035 5.7351 14.0035H12.4726V13.101ZM9.32231 15.3691H8.55908L5.89283 15.3691C4.89363 15.3691 4.07124 16.3123 3.9453 17.5328C4.29894 16.7804 4.96741 16.2716 5.7351 16.2716H8.55908H8.61186H9.32231H11.7093H12.4726V15.3691H11.7093H9.32231ZM12.4726 17.6371H5.89283C4.89363 17.6371 4.07124 18.5804 3.9453 19.8009C4.29894 19.0485 4.96741 18.5397 5.7351 18.5397H12.4726V17.6371ZM5.89283 19.7952H12.4726V20.6977H5.7351C4.96741 20.6977 4.29894 21.2066 3.9453 21.959C4.07124 20.7391 4.89363 19.7952 5.89283 19.7952ZM12.4726 21.9539H5.89283C4.89363 21.9539 4.07124 22.8971 3.9453 24.1177C4.29894 23.3646 4.96741 22.8558 5.7351 22.8558H12.4726V21.9539ZM5.89283 24.1119H12.4726V25.0145H5.7351C4.96741 25.0145 4.29894 25.5233 3.9453 26.2764C4.07124 25.0558 4.89363 24.1119 5.89283 24.1119ZM12.4726 26.2706H5.89283C4.89363 26.2706 4.07124 27.2139 3.9453 28.4344C4.29894 27.682 4.96741 27.1732 5.7351 27.1732H12.4726V26.2706ZM3.02304 30.4659C2.45215 30.7154 1.94859 30.9354 1.54492 31.1655C0.557802 31.6883 0 32 0 32C0 32 0.605502 31.7946 1.65368 31.4091C1.98768 31.2732 2.37777 31.1558 2.80781 31.0264C3.04764 30.9543 3.2999 30.8784 3.56177 30.7934C4.10823 30.6064 4.72488 30.4481 5.38655 30.2782C5.60437 30.2223 5.82707 30.1651 6.05375 30.1053C6.24555 30.0582 6.44094 30.0058 6.63954 29.9526C6.67737 29.9424 6.71532 29.9323 6.75338 29.9221L7.49118 29.7733L9.03483 29.4463C9.25553 29.4024 9.48068 29.3656 9.70774 29.3299C9.82845 29.3109 9.94989 29.2924 10.0719 29.2738C10.2728 29.2431 10.4752 29.2122 10.679 29.1786C10.8317 29.1554 10.9853 29.1306 11.1397 29.1056C11.2656 29.0852 11.3921 29.0647 11.5192 29.045C11.5499 29.0399 11.5808 29.0356 11.6118 29.0313C11.6316 29.0285 11.6514 29.0257 11.6712 29.0227C11.911 28.9871 12.1533 28.9547 12.3988 28.9331L12.4726 28.9248L13.765 28.7772L14.1829 28.7295C14.5291 28.6974 14.8789 28.6752 15.2306 28.6528C15.4921 28.6361 15.7547 28.6194 16.0178 28.5985H16.0592L16.9464 28.5349C17.122 28.5274 17.2983 28.5243 17.4748 28.5212C17.6108 28.5188 17.7471 28.5164 17.8833 28.512L19.7659 28.4681L21.356 28.5056L21.6556 28.5126C21.7987 28.5172 21.9418 28.5201 22.0846 28.523C22.1424 28.5242 22.2002 28.5253 22.2579 28.5266L22.2595 28.5267C22.3741 28.5292 22.4893 28.5317 22.6026 28.5368L23.5249 28.6004C23.6054 28.6068 23.6854 28.612 23.7654 28.6172C23.8054 28.6198 23.8454 28.6225 23.8855 28.6252L24.1972 28.6468C24.3237 28.6547 24.4498 28.6641 24.5757 28.6735C24.6637 28.6801 24.7516 28.6866 24.8396 28.6926C24.8786 28.6954 24.9177 28.6981 24.9568 28.7009C25.0873 28.7099 25.2182 28.7191 25.3484 28.7308L26.2223 28.8307L27.1363 28.9356C27.6348 28.9778 28.1199 29.0585 28.6 29.1385C28.6846 29.1526 28.7692 29.1666 28.8536 29.1805C29.0483 29.2124 29.2415 29.2417 29.4329 29.2707C29.7948 29.3257 30.1503 29.3796 30.4977 29.4482L32.0413 29.7752L32.7791 29.924L33.4788 30.1065C33.7234 30.1717 33.9635 30.2334 34.1978 30.2937C34.84 30.4589 35.4394 30.6131 35.9739 30.7954C36.2384 30.8811 36.4928 30.9576 36.7341 31.0301C37.1643 31.1595 37.5528 31.2763 37.882 31.4104C38.927 31.7933 39.5357 32 39.5357 32C39.5357 32 38.9811 31.6877 37.9895 31.1623C37.6033 30.9421 37.1295 30.7345 36.5944 30.5001C36.4528 30.438 36.3068 30.3741 36.1571 30.3075L35.6018 30.0639L35.3112 29.9367L35.2934 29.9302C35.1993 29.8954 35.1035 29.86 35.0072 29.8235C34.7733 29.7398 34.5314 29.6534 34.283 29.5646C34.0937 29.497 33.9007 29.4281 33.7046 29.3579L33.0049 29.1111C32.9362 29.0908 32.8671 29.0705 32.7978 29.05C32.6239 28.9987 32.4479 28.9468 32.2697 28.8936L30.7178 28.4573C30.35 28.361 29.9723 28.2791 29.5886 28.196C29.4148 28.1583 29.2399 28.1204 29.0641 28.0808H29.0558C28.4878 27.9536 27.9065 27.8257 27.308 27.745L27.2005 27.7284L26.6115 27.6394C26.5164 27.1028 26.2476 26.6124 25.8466 26.2435C25.4455 25.8747 24.9344 25.6477 24.3918 25.5977C24.3149 25.5869 24.2366 25.5869 24.1578 25.5869H24.1577H15.7698C15.1971 25.5874 14.6422 25.7855 14.1988 26.1479C13.7554 26.5103 13.4507 27.0147 13.3363 27.5758L12.2156 27.7462C11.6171 27.8289 11.0364 27.9561 10.4678 28.0833C10.2799 28.1263 10.0926 28.1667 9.90657 28.2069C9.58008 28.2773 9.25735 28.347 8.94133 28.428C8.92025 28.4337 8.89812 28.4392 8.87557 28.4449C8.85526 28.4499 8.83462 28.4551 8.81412 28.4605L7.26221 28.8974L6.52695 29.1143L6.1129 29.2613L5.917 29.3306L5.8305 29.3611L4.52854 29.8267L4.4872 29.8419L4.22325 29.9393L4.0617 30.0099L3.93449 30.0671L3.37733 30.3107C3.25666 30.3639 3.13847 30.4155 3.02304 30.4659Z" fill="black"/>
</g>
<defs>
<clipPath id="clip0_109_33">
<rect width="128" height="32" fill="white"/>
</clipPath>
</defs>
</svg>
