<svg width="129" height="34" viewBox="0 0 129 34" fill="none" xmlns="http://www.w3.org/2000/svg">
<g clip-path="url(#clip0_5_280)">
<path fill-rule="evenodd" clip-rule="evenodd" d="M77.1279 5.74465L82.8498 0.343571L82.8509 0.343018H90.2024C91.9454 0.343018 93.3941 0.98358 94.5469 2.27024C95.6981 3.55357 96.2745 5.23021 96.2745 7.29184C96.2745 8.28477 96.0466 9.1466 95.5941 9.88784C95.1377 10.6258 94.5314 11.2082 93.7769 11.6325C94.4933 11.8554 95.0885 12.3643 95.5636 13.1648C96.0388 13.9652 96.2756 14.8497 96.2756 15.8216C96.2756 17.9059 95.6914 19.5881 94.5187 20.8748C93.346 22.1614 91.9067 22.8009 90.2041 22.8009H84.1303V17.3987H89.1282C89.5718 17.3987 89.9181 17.2455 90.172 16.9429C90.4259 16.6403 90.5514 16.2658 90.5514 15.8216C90.5514 15.3558 90.4237 14.9825 90.172 14.6987C89.9203 14.4149 89.5718 14.2739 89.1282 14.2739H84.1303V8.87057H89.1282C89.5718 8.87112 89.9181 8.71845 90.172 8.41587C90.4259 8.11329 90.5514 7.73991 90.5514 7.29295C90.5514 6.82829 90.4264 6.45436 90.172 6.17003C89.9203 5.88902 89.5718 5.7441 89.1282 5.7441H82.8498V22.802H77.1279V5.74465ZM61.2526 6.24581V0.567048L61.2537 0.566495H80.475L78.6457 2.47657L75.0861 6.24581H71.4297V22.9198H65.9966V6.24581H61.2526ZM47.6161 7.79412L54.5334 0.672149H59.9687V22.9192H54.5334V8.20733L50.1357 12.7488H42.8229L47.6161 7.79412ZM35.462 17.0856L38.1282 14.2479V14.249H52.4081L47.6166 19.3076L47.0248 19.9255H43.1194L40.2043 22.9215H32.9412L38.5746 17.0856H35.462ZM96.5239 27.3296V26.3217H97.9146V27.3296H96.5239ZM86.4542 26.9053L87.8448 26.4738L87.8443 27.6454H88.4749V28.5111H87.8443V29.3685C87.8443 29.4974 87.8736 29.5976 87.9245 29.6673C87.9776 29.7347 88.0606 29.7679 88.1657 29.7679C88.2066 29.7679 88.2486 29.7657 88.2962 29.7569L88.4743 29.7093V30.5811C88.3637 30.6231 88.2558 30.6563 88.1535 30.6784C87.9798 30.7172 87.7984 30.7365 87.607 30.7365C87.1456 30.7365 86.827 30.6093 86.6456 30.3476C86.5183 30.164 86.4542 29.9001 86.4542 29.5555V28.5117H85.9602V27.6454H86.4542V26.9053ZM19.5143 28.0006C19.8346 27.7168 20.2727 27.5769 20.8237 27.5769V27.5824C21.3757 27.5824 21.8122 27.7234 22.1346 28.0039C22.4571 28.2843 22.6176 28.6721 22.6176 29.1622C22.6176 29.6523 22.4555 30.0373 22.1346 30.3194C21.8138 30.6015 21.3752 30.7432 20.8237 30.7432C20.2721 30.7432 19.8368 30.6038 19.5143 30.3228C19.1918 30.0417 19.0314 29.6545 19.0314 29.1622C19.0314 28.6699 19.194 28.2843 19.5143 28.0006ZM32.3643 27.8136C32.5258 27.6543 32.7166 27.5769 32.9324 27.5769H32.9385C33.0021 27.5769 33.079 27.5851 33.1597 27.6045V28.8159L33.0192 28.7883C32.9595 28.7772 32.9086 28.7717 32.8721 28.7717C32.6547 28.7717 32.4766 28.8414 32.3355 28.978C32.1967 29.1174 32.127 29.3143 32.127 29.5732V30.6685H30.7352V27.6443H32.0374V28.3325H32.0595C32.1142 28.136 32.2193 27.9571 32.3643 27.8136ZM42.5447 28.1593C42.7283 27.7705 43.0348 27.5769 43.4607 27.5769L43.4596 27.5763C43.8087 27.5763 44.0985 27.6847 44.327 27.8993C44.6229 28.1798 44.7695 28.6168 44.7695 29.2087C44.7695 29.7275 44.634 30.1214 44.3657 30.3924C44.1367 30.6209 43.8507 30.7371 43.5044 30.7371C43.1189 30.7371 42.8229 30.5872 42.6194 30.2813V31.9319H41.2298V27.6438H42.5242V28.1593H42.5447ZM53.203 28.0006C53.5239 27.7168 53.9609 27.5769 54.514 27.5769V27.5824C55.0661 27.5824 55.5036 27.7234 55.825 28.0039C56.1464 28.2843 56.3079 28.6721 56.3079 29.1622C56.3079 29.6523 56.1475 30.0373 55.825 30.3194C55.5025 30.6015 55.0672 30.7432 54.514 30.7432C53.9609 30.7432 53.525 30.6038 53.203 30.3228C52.8811 30.0417 52.7218 29.6545 52.7218 29.1622C52.7218 28.6699 52.8822 28.2843 53.203 28.0006ZM66.053 27.8136C66.2145 27.6543 66.407 27.5769 66.6227 27.5769L66.6238 27.5757C66.6999 27.5761 66.7757 27.5856 66.8495 27.604V28.8154L66.7079 28.7877C66.6598 28.778 66.6109 28.7727 66.5619 28.7717C66.4635 28.7685 66.3654 28.7852 66.2735 28.8206C66.1816 28.856 66.0978 28.9096 66.027 28.978C65.8865 29.1174 65.8168 29.3143 65.8168 29.5732V30.6685H64.425V27.6443H65.7277V28.3325H65.7515C65.8096 28.1261 65.9103 27.953 66.053 27.8136ZM106.515 28.0006C106.837 27.7168 107.275 27.5769 107.826 27.5769V27.5824C108.378 27.5824 108.815 27.7234 109.137 28.0039C109.458 28.2843 109.621 28.6721 109.621 29.1622C109.621 29.6523 109.452 30.0373 109.137 30.3194C108.821 30.6015 108.377 30.7432 107.826 30.7432C107.274 30.7432 106.837 30.6038 106.515 30.3228C106.192 30.0417 106.031 29.6545 106.031 29.1622C106.031 28.6699 106.192 28.2843 106.515 28.0006ZM119.508 27.6808C119.647 27.6111 119.813 27.5769 120.005 27.5769C120.333 27.5769 120.583 27.6604 120.755 27.8274C120.926 27.9945 121.009 28.2423 121.009 28.5676V30.6679H119.618V28.9255C119.618 28.7999 119.61 28.7153 119.591 28.6599C119.559 28.5648 119.485 28.5172 119.375 28.5172C119.266 28.5172 119.192 28.5648 119.155 28.6599C119.138 28.7097 119.127 28.8004 119.127 28.9255V30.6679H117.737V27.6477H119.049V28.1704H119.074C119.161 27.9453 119.305 27.7804 119.508 27.6808ZM8.56502 28.1129C8.87408 27.7568 9.34671 27.5781 9.98236 27.578C10.2059 27.578 10.409 27.5913 10.5885 27.6167L11.0183 27.7174V28.5803C10.9131 28.5328 10.8029 28.4974 10.6897 28.4746C10.6017 28.4556 10.512 28.4454 10.422 28.4442C10.2074 28.4442 10.0331 28.5095 9.90035 28.6367C9.76759 28.7639 9.70121 28.9398 9.70121 29.165C9.70121 29.373 9.76261 29.5461 9.89261 29.6772C10.0226 29.8083 10.1968 29.873 10.4181 29.873C10.5055 29.873 10.5973 29.8642 10.6914 29.8454C10.8127 29.8164 10.9302 29.7733 11.0415 29.717V30.5866C10.873 30.6403 10.7001 30.6793 10.5249 30.7033C10.3508 30.7257 10.1754 30.737 9.99992 30.7371C9.41412 30.7371 8.96274 30.5816 8.64633 30.2647C8.35481 29.9776 8.21099 29.6014 8.21099 29.139C8.21099 28.7296 8.32826 28.3861 8.56502 28.1129ZM75.7588 27.6288C75.9863 27.5955 76.2159 27.5785 76.4458 27.578C76.8944 27.578 77.2562 27.6582 77.5283 27.8197C77.8663 28.0205 78.0361 28.3275 78.0361 28.7424V30.6674H76.7639V30.3001H76.7417C76.6223 30.4689 76.4525 30.5955 76.2566 30.6618C76.1111 30.7122 75.9391 30.7365 75.7378 30.7365C75.4092 30.7365 75.1553 30.648 74.9744 30.4699C74.8084 30.3111 74.7282 30.0965 74.7282 29.8326C74.7282 29.5124 74.8328 29.2679 75.0402 29.1003C75.215 28.9575 75.4551 28.8613 75.7649 28.8193C75.9441 28.7883 76.2146 28.7783 76.5708 28.7783H76.7655V28.6832C76.7655 28.5465 76.6881 28.4398 76.5332 28.3845C76.4159 28.3397 76.2693 28.3142 76.0923 28.3142C75.9966 28.3142 75.8915 28.3253 75.7715 28.3474C75.5414 28.3823 75.3102 28.4531 75.0823 28.5537V27.7616C75.2941 27.7063 75.5209 27.6587 75.7588 27.6288ZM96.5256 30.6674V27.6471H97.9163V30.6674H96.5256ZM21.0875 28.6826C21.0449 28.5233 20.9564 28.4403 20.8237 28.4403C20.6914 28.4403 20.6024 28.5205 20.5598 28.6765C20.5332 28.7711 20.5189 28.9304 20.5189 29.1561C20.5189 29.3785 20.5332 29.5367 20.5598 29.6285C20.6024 29.7906 20.6909 29.8719 20.8237 29.8719C20.9564 29.8719 21.0444 29.7934 21.0875 29.6352C21.1141 29.5439 21.1273 29.3846 21.1273 29.1567C21.1273 28.9338 21.1152 28.7767 21.0875 28.6826ZM54.779 28.6826C54.7336 28.5233 54.6462 28.4403 54.5135 28.4403C54.379 28.4403 54.2922 28.5205 54.2479 28.6765C54.2231 28.7711 54.2092 28.9304 54.2092 29.1561C54.2092 29.3785 54.2231 29.5367 54.2479 29.6285C54.2922 29.7906 54.3807 29.8719 54.5135 29.8719C54.6462 29.8719 54.7347 29.7934 54.779 29.6352C54.8055 29.5439 54.8177 29.3846 54.8177 29.1567C54.8177 28.9338 54.8055 28.7767 54.779 28.6826ZM108.09 28.6826C108.046 28.5233 107.957 28.4403 107.823 28.4403C107.691 28.4403 107.604 28.5205 107.56 28.6765C107.532 28.7711 107.519 28.9304 107.519 29.1561C107.519 29.3785 107.532 29.5367 107.56 29.6285C107.604 29.7906 107.69 29.8719 107.823 29.8719C107.957 29.8719 108.046 29.7934 108.09 29.6352C108.114 29.5439 108.128 29.3846 108.128 29.1567C108.128 28.9338 108.114 28.7767 108.09 28.6826ZM43.2229 28.7938C43.1664 28.6356 43.0718 28.5582 42.9297 28.5582V28.5571C42.7897 28.5571 42.6918 28.6345 42.6365 28.7872C42.6 28.8878 42.5834 29.0239 42.5834 29.1965C42.5834 29.3614 42.6 29.498 42.6365 29.6003C42.6929 29.7591 42.7903 29.8382 42.9297 29.8382C43.0724 29.8382 43.1675 29.7596 43.2229 29.607C43.2599 29.5074 43.2782 29.3702 43.2782 29.1976C43.2782 29.0328 43.2599 28.8967 43.2229 28.7938ZM76.7622 29.3536H76.692C76.4519 29.3536 76.2865 29.3813 76.1919 29.4371C76.0973 29.493 76.0492 29.587 76.0492 29.7181C76.0492 29.8017 76.0807 29.8692 76.1388 29.9245C76.205 29.9805 76.29 30.0094 76.3767 30.0052C76.484 30.0052 76.5747 29.9626 76.6499 29.8852C76.7263 29.8017 76.7622 29.6816 76.7622 29.5212V29.3536ZM128.22 24.9349H0.996094V33.343H128.22V24.9349Z" fill="black"/>
</g>
<defs>
<clipPath id="clip0_5_280">
<rect width="129" height="34" fill="white"/>
</clipPath>
</defs>
</svg>
