<svg width="163" height="33" viewBox="0 0 163 33" fill="none" xmlns="http://www.w3.org/2000/svg">
<g clip-path="url(#clip0_5_284)">
<path fill-rule="evenodd" clip-rule="evenodd" d="M32.6019 31.4076C32.6019 32.2876 31.8895 33 31.0095 33H1.61333C0.733334 33 0 32.2876 0 31.4076V1.61333C0 0.733333 0.712382 0 1.61333 0H31.0095C31.8895 0 32.6019 0.71238 32.6019 1.61333V31.4076ZM26.84 12.9904V5.99235H19.821V12.9904H12.8019V5.99235H5.78288V27.0285H12.8019V20.0095H19.821V27.0285H26.84V20.0095H19.821V12.9904H26.84ZM54.2247 15.4419C54.2247 16.4686 55.3771 16.9505 56.4876 16.9505C57.619 16.9505 58.7295 16.4477 58.7295 15.4419V10.6857C58.7295 9.59622 57.5771 9.11432 56.4247 9.11432C55.3143 9.11432 54.2247 9.65908 54.2247 10.6857V15.4419ZM50.6838 10.6857C50.6838 7.48003 53.5543 5.90861 56.4457 5.90861C59.3371 5.90861 62.2285 7.50099 62.2285 10.6857V15.4419C62.2285 18.6267 59.3581 20.2191 56.4666 20.2191C53.5752 20.2191 50.6838 18.6267 50.6838 15.4419V10.6857ZM51.208 6.09718H46.8289L43.0575 11.2515V6.09718H39.5166V20.0305H43.0575V15.2115L43.1832 15.0648L46.7661 20.0305H51.208L45.7185 12.9486L51.208 6.09718ZM51.3334 27.9505C50.4324 27.9505 49.8667 27.2381 49.8667 26.1276C49.8667 25.0381 50.4324 24.3467 51.3334 24.3467C52.2134 24.3467 52.7791 25.059 52.7791 26.1486C52.7791 27.2381 52.2134 27.9505 51.3334 27.9505ZM51.3124 28.6629C52.6743 28.6629 53.6172 27.6362 53.6172 26.1486C53.6172 24.661 52.6743 23.6343 51.3334 23.6343C49.8667 23.6343 49.0076 24.7448 49.0076 26.1486C49.0076 27.6362 49.9295 28.6629 51.3124 28.6629ZM43.4346 28.5372H42.5966V24.4724H40.3966V28.5372H39.5585V23.7391H43.4346V28.5372ZM45.4665 26.0229H46.6189C47.1637 26.0229 47.5408 25.7924 47.5408 25.2267C47.5408 24.5981 47.0798 24.4514 46.556 24.4514H45.4665V26.0229ZM46.7027 23.7391C47.6875 23.7391 48.3789 24.2 48.3789 25.2057C48.3789 26.1067 47.7922 26.6934 46.8284 26.6934H45.4665V28.5372H44.6284V23.7391H46.7027ZM59.5258 28.5372H58.7296V24.8495L57.3887 28.5372H56.7182L55.3353 24.8495V28.5372H54.5392V23.7391H55.7334L57.0744 27.4895L58.3525 23.7391H59.5258V28.5372ZM61.5374 23.7391H60.6783V28.5372H61.6631L63.7374 24.8705V28.5372H64.5754V23.7391H63.5907L61.5374 27.4267V23.7391ZM67.7599 28.6629C66.398 28.6629 65.518 27.6571 65.518 26.1486C65.518 24.7867 66.3561 23.6343 67.8018 23.6343C68.7657 23.6343 69.6456 24.1581 69.8133 25.2686H68.9752C68.8704 24.6819 68.4095 24.3467 67.7809 24.3467C66.7752 24.3467 66.3561 25.2476 66.3561 26.1486C66.3561 27.0286 66.7542 27.9505 67.7809 27.9505C68.5561 27.9505 68.9123 27.4267 69.0171 26.7143H69.8552C69.7504 27.8876 68.9542 28.6629 67.7599 28.6629ZM73.5429 24.4724V28.5372H74.4019V23.7391H71.28L71.1753 26.5257C71.1334 27.741 70.861 27.9505 70.5258 27.9505C70.4419 27.9505 70.2953 27.9295 70.1905 27.8876V28.5372C70.3162 28.5791 70.5048 28.621 70.6934 28.621C71.3638 28.621 71.9086 28.0972 71.9715 26.7562L72.0553 24.4724H73.5429ZM76.1412 26.1276C76.1412 27.2381 76.7069 27.9505 77.6078 27.9505C78.4878 27.9505 79.0536 27.2381 79.0536 26.1486C79.0536 25.059 78.4878 24.3467 77.5869 24.3467C76.7278 24.3467 76.1412 25.0381 76.1412 26.1276ZM79.9126 26.1486C79.9126 27.6362 78.9697 28.6629 77.6078 28.6629C76.225 28.6629 75.3031 27.6362 75.3031 26.1486C75.3031 24.7448 76.1412 23.6343 77.6078 23.6343C78.9697 23.6343 79.9126 24.661 79.9126 26.1486ZM82.9083 27.8457H81.6512V26.3372H82.9083C83.4531 26.3372 83.956 26.4419 83.956 27.0914C83.956 27.72 83.4741 27.8457 82.9083 27.8457ZM82.8036 25.7505H81.6512V24.4514H82.8245C83.3064 24.4514 83.7464 24.4934 83.7464 25.101C83.7464 25.5829 83.4322 25.7505 82.8036 25.7505ZM84.5636 24.9543C84.5636 24.2419 84.0607 23.7391 83.0131 23.7391L80.8131 23.76V28.5581H83.2645C84.1445 28.5581 84.7731 27.9924 84.7731 27.1334C84.7731 26.5048 84.4169 26.0857 83.8722 25.96C84.2703 25.8134 84.5636 25.4153 84.5636 24.9543ZM86.3447 26.1276C86.3447 27.2381 86.9104 27.9505 87.8113 27.9505C88.6913 27.9505 89.257 27.2381 89.257 26.1486C89.257 25.059 88.6913 24.3467 87.7904 24.3467C86.9104 24.3467 86.3447 25.0381 86.3447 26.1276ZM90.0951 26.1486C90.0951 27.6362 89.1523 28.6629 87.7904 28.6629C86.4075 28.6629 85.4856 27.6362 85.4856 26.1486C85.4856 24.7448 86.3237 23.6343 87.8113 23.6343C89.1732 23.6343 90.0951 24.661 90.0951 26.1486ZM90.8495 26.3371H92.8191V27.0495H90.8495V26.3371ZM96.0667 26.2743H94.6838V27.8667H96.0876C96.6324 27.8667 96.9257 27.6153 96.9257 27.0914C96.9048 26.5676 96.5905 26.2743 96.0667 26.2743ZM96.1086 28.5372H93.8248V23.7391H97.3657V24.4724H94.6838V25.5829H96.1295C97.1771 25.5829 97.7638 26.1067 97.7638 27.0495C97.7429 28.0134 97.1562 28.5372 96.1086 28.5372ZM99.1048 23.7391H98.1829L99.8381 27.1753V27.1962C99.5867 27.6572 99.419 27.9295 99.1048 27.9295C98.8114 27.9295 98.6438 27.8667 98.56 27.8038V28.5162C98.6857 28.5791 98.9162 28.6419 99.1257 28.6419C99.6495 28.6419 100.09 28.3695 100.488 27.5524L102.352 23.7391H101.451L100.257 26.3162L99.1048 23.7391ZM105.6 24.4724H104.134V24.7657C104.134 25.96 103.882 27.2172 103.589 27.8248H105.6V24.4724ZM106.166 29.7314V28.5372H103.044V29.7314H102.227V27.8038H102.688C103.044 27.1543 103.316 25.7924 103.316 24.4724V23.7391H106.438V27.8038H106.983V29.7314H106.166ZM107.737 23.7391H108.575V28.5372H107.737V23.7391ZM110.587 27.8457H111.844C112.41 27.8457 112.891 27.72 112.891 27.0914C112.891 26.4419 112.389 26.3372 111.844 26.3372H110.608L110.587 27.8457ZM110.587 25.7505H111.739C112.368 25.7505 112.682 25.5829 112.682 25.101C112.682 24.4934 112.242 24.4514 111.76 24.4514H110.587V25.7505ZM111.949 23.7391C112.996 23.7391 113.499 24.2419 113.499 24.9543C113.499 25.4153 113.227 25.8134 112.808 25.96C113.352 26.0857 113.709 26.5048 113.709 27.1334C113.709 27.9924 113.08 28.5581 112.2 28.5581H109.749V23.76L111.949 23.7391ZM115.511 24.4514H118.13V23.7391H114.672V28.5372H118.151V27.8248H115.511V26.4H117.941V25.7295H115.511V24.4514ZM121.985 28.5372V24.4724H120.497L120.413 26.7562C120.35 28.0972 119.806 28.621 119.135 28.621C118.947 28.621 118.758 28.5791 118.632 28.5372V27.8876C118.737 27.9295 118.884 27.9505 118.968 27.9505C119.303 27.9505 119.575 27.741 119.617 26.5257L119.722 23.7391H122.865V28.5372H121.985ZM124.834 26.2743H126.07C126.594 26.2743 126.908 26.5676 126.908 27.0914C126.908 27.6153 126.615 27.8667 126.07 27.8667H124.834V26.2743ZM123.996 28.5372H126.112C127.16 28.5372 127.746 28.0134 127.746 27.0286C127.746 26.0857 127.16 25.5619 126.112 25.5619H124.834V23.7391H123.996V28.5372ZM132.524 28.5372H131.685V26.3791H129.485V28.5372H128.647V23.7391H129.485V25.6457H131.685V23.7391H132.524V28.5372ZM134.682 26.6305L135.436 24.6191L136.148 26.6305H134.682ZM136.819 28.5372H137.72L135.876 23.7391H134.975L133.131 28.5372H133.99L134.451 27.2591H136.358L136.819 28.5372ZM140.381 28.5372V23.7391H143.649V24.4724H141.24V28.5372H140.381ZM146.374 26.0229H145.2L145.221 24.4514H146.311C146.834 24.4514 147.295 24.5981 147.295 25.2267C147.295 25.7924 146.918 26.0229 146.374 26.0229ZM148.113 25.2057C148.113 24.2 147.421 23.7391 146.436 23.7391H144.362V28.5372H145.2V26.6934H146.562C147.526 26.6934 148.113 26.1067 148.113 25.2057ZM148.469 23.7391H149.391L150.543 26.3162L151.737 23.7391H152.638L150.774 27.5524C150.375 28.3695 149.935 28.6419 149.412 28.6419C149.202 28.6419 148.972 28.5791 148.846 28.5162V27.8038C148.93 27.8667 149.097 27.9295 149.391 27.9295C149.705 27.9295 149.873 27.6572 150.124 27.1962V27.1753L148.469 23.7391ZM156.305 28.5372H157.143V23.7391H153.267V28.5372H154.105V24.4724H156.305V28.5372ZM160.055 24.6191L159.301 26.6305H160.768L160.055 24.6191ZM162.36 28.5372H161.459L160.998 27.2591H159.091L158.63 28.5372H157.75L159.594 23.7391H160.495L162.36 28.5372ZM69.6877 14.101C71.783 14.101 71.8039 16.9505 69.6877 16.9505H67.6344V14.101H69.6877ZM69.6877 9.07241C71.4687 9.07241 71.4058 11.5448 69.6877 11.5448H67.6344V9.07241H69.6877ZM74.7582 16.4267C74.9258 15.3581 74.6953 13.5772 72.7887 12.6134C73.7944 12.1105 74.2134 10.9791 74.2344 10.3505C74.3182 7.68956 72.3696 6.09718 69.7087 6.09718H64.1144V20.0305H69.7925C72.8934 20.0305 74.402 18.6686 74.7582 16.4267ZM82.3428 14.101L81.379 10.0362H81.2743L80.2476 14.101H82.3428ZM87.8743 20.0305H84.1028L83.2019 17.2438H79.4724L78.6133 20.0305H74.8419L79.7028 6.09718H82.9085L87.8743 20.0305ZM88.1883 20.0305C92.735 20.4915 94.1807 16.9086 94.3483 13.6819L94.5788 9.44956H97.1559V20.0305H100.697V6.09718H91.394L91.0588 10.7696C91.0349 11.1205 91.0165 11.4712 90.9983 11.8168C90.857 14.5046 90.7317 16.8895 88.1883 16.741V20.0305ZM108.324 16.9505C109.518 16.9505 109.874 16.1124 109.874 15.2115C109.874 14.1848 109.288 13.64 108.324 13.64H106.229V16.9505H108.324ZM108.429 20.0305H102.709V6.09718H106.25V10.8324H108.345C112.116 10.8324 113.352 12.5924 113.352 15.2324C113.331 17.9772 111.509 20.0305 108.429 20.0305ZM119.994 20.2191C121.754 20.2191 123.871 19.36 125.023 17.0972L121.964 15.6724C121.189 17.6 118.046 17.1391 118.046 15.4629V10.6648C118.046 8.92575 121.147 8.52765 122.09 10.2667L124.96 9.11432C123.829 6.64194 121.775 5.90861 120.057 5.90861C117.271 5.90861 114.505 7.52194 114.505 10.6648V15.4629C114.505 18.6267 117.271 20.2191 119.994 20.2191ZM131.937 16.9505C133.131 16.9505 133.488 16.1124 133.488 15.2115C133.488 14.1848 132.901 13.64 131.937 13.64H129.842V16.9505H131.937ZM132.021 20.0305H126.301V6.09718H129.842V10.8324H131.937C135.708 10.8324 136.966 12.5924 136.966 15.2324C136.945 17.9772 135.122 20.0305 132.021 20.0305ZM149.873 6.09718H145.494L141.701 11.2515V6.09718H138.16V20.0305H141.701V15.2115L141.827 15.0648L145.431 20.0305H149.537H149.852H153.308L154.167 17.2438H157.897L158.798 20.0305H162.569L157.583 6.09718H154.398L149.635 19.7505L144.362 12.9486L149.873 6.09718ZM155.99 10.0362H156.095L157.059 14.101H154.964L155.99 10.0362Z" fill="black"/>
</g>
<defs>
<clipPath id="clip0_5_284">
<rect width="163" height="33" fill="white"/>
</clipPath>
</defs>
</svg>
