<svg width="85" height="34" viewBox="0 0 85 34" fill="none" xmlns="http://www.w3.org/2000/svg">
<g clip-path="url(#clip0_5_292)">
<path fill-rule="evenodd" clip-rule="evenodd" d="M84.8878 12.1815C84.9222 11.7687 84.9394 11.3732 84.9394 10.9948V10.9432C84.9394 9.34374 84.4234 7.84747 83.5463 6.86715C81.8436 5.00971 79.1607 4.80333 77.2516 4.85492C75.3703 4.8911 60.8551 5.38393 51.2283 5.71078C47.1263 5.85006 43.9118 5.9592 42.9405 5.99003H42.7342C42.7342 5.88684 42.6826 5.78365 42.6826 5.78365C42.5278 4.49376 41.9602 3.30706 41.1347 2.42993C40.1544 1.29483 38.2453 0.0565335 35.0464 0.159725C31.1767 0.314512 28.4938 2.99748 27.2555 4.59695C27.2555 4.59695 27.2039 4.64854 27.1523 4.75173C27.0491 4.70014 26.9975 4.64854 26.9975 4.64854C24.3145 3.77142 21.322 3.61663 18.3294 4.28737C15.4401 4.90652 11.3124 6.50598 8.31989 8.98257C3.05714 13.3682 0.37417 18.5794 0.683744 23.6357C0.890126 26.5767 2.28321 29.1049 4.7082 30.9623C8.73266 33.9548 15.3369 33.1809 17.9683 32.665C20.9092 32.149 67.0873 23.0682 73.1756 21.8299C78.6963 20.6948 83.9075 18.7341 84.8878 12.1815ZM35.1496 9.65332C34.0145 9.70491 33.1374 9.39534 32.673 8.77619C32.2946 8.32903 32.1915 7.74428 32.3634 7.02194C32.5354 6.3684 32.8622 5.85244 33.3438 5.47407C33.9629 4.95812 34.84 4.70014 35.8719 4.75173C37.6262 4.85492 38.5033 5.99003 38.4517 7.12513C38.3485 8.77619 36.7491 9.55012 35.1496 9.65332ZM81.5348 11.8881C81.5505 11.9523 81.5632 12.0042 81.5857 12.0267C81.3793 12.8522 80.5537 13.6262 79.883 13.6778L79.7798 13.7294V13.8326C79.1606 15.2772 78.0771 16.1544 76.4777 16.4123C75.1878 16.6703 73.8979 15.8448 73.5883 14.4517L73.5367 14.1937C72.4532 16.7219 71.1117 17.2895 70.0798 17.4443C69.6671 17.4958 68.2224 17.5474 68.3772 15.8448C68.4288 14.8129 68.6867 13.781 68.8931 12.9554C68.9136 12.8669 68.934 12.7793 68.9542 12.6927C69.087 12.1231 69.2095 11.5975 69.2543 11.1496C69.2543 10.84 69.1511 10.6336 68.9963 10.4788C68.9275 10.3757 68.8243 10.3413 68.6867 10.3757C68.0676 10.4272 67.5516 12.0267 67.3453 12.9038C67.3453 12.9038 66.2618 17.8054 66.2618 18.0634C66.0038 18.0634 63.424 18.5278 63.0112 18.6309L63.9399 14.5549L63.7336 14.7097C63.4928 14.8817 63.2348 15.0193 62.9596 15.1224L62.8564 15.174V15.2772C62.3921 17.8054 60.741 19.2501 57.9549 19.7145C55.7878 20.0756 54.3432 19.3533 53.982 17.5474L53.9304 17.0831L53.7756 17.3411L53.6724 17.4958C53.0017 18.7341 51.557 20.8496 49.4932 21.2107C48.7708 21.3139 48.1001 21.1591 47.6873 20.7464C47.1714 20.3336 46.965 19.6113 46.965 18.6825C46.965 17.4443 47.3262 16.2576 47.6873 15.2256L47.7905 14.8645C47.7905 14.8645 48.3581 12.7491 48.4613 12.3363C48.5645 11.8719 48.2549 11.3044 47.6873 11.5624C47.4294 11.7171 47.3262 11.9235 47.223 12.1299C47.1198 12.3879 47.0166 12.8522 46.8618 13.6778C46.6038 15.3288 46.0879 18.4246 45.0044 20.024C43.6629 22.0363 42.0634 22.5006 41.4443 22.6038C39.8964 22.8618 38.6065 22.5006 37.8326 21.8299C36.1299 23.1714 33.7565 23.9969 32.415 24.1517C29.1129 24.6676 28.3906 22.5522 28.8549 20.5916C28.8549 20.569 28.8624 20.5464 28.8772 20.5238C28.887 20.512 28.8968 20.5002 28.9065 20.4884C28.8947 20.5002 28.8849 20.512 28.8772 20.5238C26.6611 23.1945 23.6274 25.8059 19.9289 26.5251C15.7497 27.4022 13.3247 26.7831 11.364 25.0288C9.97095 23.7905 9.09383 21.0043 9.71297 18.6825C11.4672 11.7687 18.0199 8.56981 22.3539 8.41502C25.1401 8.26023 26.4299 8.82779 27.5135 9.91129C28.1842 10.6336 28.5454 11.5624 28.4938 12.6975C28.4938 14.8645 26.9459 16.3091 25.0369 16.5155C24.1597 16.6187 23.4374 16.3607 22.9214 15.8964C22.3539 15.3804 22.0959 14.6065 22.0959 13.6262C22.1475 12.1299 23.3858 10.8916 24.1081 10.4788C24.1081 10.4788 24.5725 10.2209 25.0369 10.0661C25.3464 9.55012 20.4449 8.20864 17.5555 14.6581C17.5347 14.7066 17.5143 14.7542 17.4941 14.8012C17.0633 15.8041 16.7654 16.4977 16.4204 18.3214C16.0076 21.0043 16.73 22.9134 18.0715 23.6873C19.0002 24.2549 20.4965 24.3065 22.4055 23.7905C26.0172 22.8102 29.4225 18.1666 30.6092 14.8129C30.9408 13.7879 31.2724 12.7276 31.5217 11.9306C31.6991 11.3636 31.8347 10.9299 31.8991 10.7368C32.1055 10.7368 36.8523 10.4788 37.265 10.4272C37.1618 10.9432 34.7368 18.5794 34.7368 18.5794C34.6336 18.7857 34.1177 20.5916 34.5305 21.1591C34.6852 21.3139 35.0464 21.5203 35.4592 21.4687C36.0486 21.3845 36.3975 21.1629 36.7862 20.916C36.8739 20.8603 36.9637 20.8034 37.0586 20.7464C36.7491 20.3336 36.4395 19.5597 36.5943 18.6825C36.8523 17.1863 38.4517 15.9996 39.8964 16.9283C40.6187 17.3927 40.9283 18.373 40.2576 19.5597C39.948 20.0756 39.5868 20.4884 38.9677 20.9528C39.2257 21.1591 39.5868 21.1591 40.0512 21.1075C41.9086 20.798 42.4762 18.9921 42.7858 16.3091L42.8373 16.206C43.0437 13.9873 43.4565 11.7171 45.1076 10.1693C46.6554 8.72459 48.7708 10.0145 48.874 11.0464L49.2352 9.8081C49.2352 9.8081 52.7437 9.70491 53.1565 9.65332C53.0533 10.1177 51.299 16.8251 51.299 16.8251L51.2474 17.4443V17.4958C51.2474 17.6506 51.299 17.8054 51.4022 17.9086C51.5054 17.9774 51.643 18.0118 51.815 18.0118C52.5373 17.9086 53.4144 16.3607 53.982 14.9677V14.8645C54.0336 14.5033 54.1368 14.1421 54.2916 13.6262L54.3948 13.265C54.3948 13.265 55.0139 10.2725 55.2203 9.55012C55.4267 9.55012 58.6772 9.39534 58.6772 9.39534C58.6772 9.39534 56.9745 16.9283 56.9745 17.8054C56.9745 18.2182 57.0777 18.5278 57.2841 18.7341C57.3873 18.8373 57.5249 18.8717 57.6969 18.8373C58.7804 18.6825 59.5543 17.7022 59.8123 15.8448L59.8639 15.5868L59.6059 15.69C57.3873 16.3607 57.1809 11.7687 60.9474 11.356C62.3921 11.2528 62.7533 12.6975 62.8564 13.1618C62.8908 13.3338 62.9252 13.523 62.9596 13.7294V13.9358L63.166 13.8842C63.5272 13.781 63.9915 13.4198 64.3011 12.9554L65.1782 9.08576C65.4362 9.03417 67.5516 8.93098 67.9128 8.93098C67.8612 9.18895 67.6548 10.1177 67.6548 10.1177L68.1192 9.65332C68.3256 9.34374 69.1511 8.82779 70.0282 8.72459C71.2665 8.6214 72.4016 8.98257 72.2468 10.8916C72.2024 11.6031 72.0813 12.2379 71.9496 12.9282C71.9284 13.0389 71.9071 13.151 71.8857 13.265C71.7309 13.8326 71.6277 14.2969 71.6277 14.6065C71.6277 14.7785 71.6621 14.8989 71.7309 14.9677C71.8341 15.0365 71.9373 15.0709 72.0405 15.0709C72.5048 15.0193 73.1756 13.6262 73.5367 12.6459V12.5943C73.7947 9.75651 75.9617 8.41502 77.458 8.31183C79.883 8.15704 80.2442 9.75651 80.2442 11.356C80.2442 11.6655 80.0894 12.8006 80.0894 12.8006L80.2958 12.7491C80.7085 12.6975 81.1729 12.1299 81.4309 11.6139C81.4891 11.7013 81.5144 11.805 81.5348 11.8881ZM78.0771 9.13736C78.3351 9.39534 78.4383 9.8597 78.3867 10.4273V10.4788C78.3867 10.4788 77.2516 10.5304 77.2 12.1815C77.0968 13.1618 77.9739 13.6262 77.9739 13.6262L77.9223 13.8326L77.9017 13.8905C77.6503 14.5957 77.3885 15.3302 76.7356 15.3804C76.5292 15.4148 76.3573 15.3804 76.2197 15.2772C76.0133 15.0709 75.9101 14.9161 75.9101 14.2969C75.9617 12.8006 76.684 9.03417 77.7159 8.98257C77.8535 8.98257 77.9739 9.03417 78.0771 9.13736ZM78.3351 11.5107C78.3351 11.9235 78.3351 12.2847 78.1804 12.749C77.8192 12.5427 77.8192 11.8719 78.0256 11.6139C78.1287 11.5107 78.2835 11.4591 78.3351 11.5107ZM59.967 13.3682C60.2765 13.6778 60.1217 14.2969 60.1217 14.2969C60.0186 14.4345 59.795 14.5377 59.451 14.6065C59.0738 14.7008 58.9982 14.5366 58.9486 14.4288C58.9439 14.4187 58.9395 14.409 58.935 14.4001C58.8834 14.0389 59.193 13.523 59.5542 13.3682C59.709 13.265 59.9154 13.3166 59.967 13.3682ZM38.0906 20.1272C38.6581 19.6629 39.1225 19.1469 39.2773 18.7857C39.5868 18.0634 39.3289 17.7022 38.7613 17.7022C38.039 17.7022 37.3166 18.9921 38.0906 20.1272Z" fill="black"/>
</g>
<defs>
<clipPath id="clip0_5_292">
<rect width="85" height="34" fill="white"/>
</clipPath>
</defs>
</svg>
