<svg width="164" height="33" viewBox="0 0 164 33" fill="none" xmlns="http://www.w3.org/2000/svg">
<g clip-path="url(#clip0_5_294)">
<path fill-rule="evenodd" clip-rule="evenodd" d="M30.0541 6.98448C27.369 7.67715 24.8756 8.75465 22.574 10.4094C22.0369 8.40832 21.3082 6.54194 20.2725 4.81025C19.2175 3.07855 18.0092 1.48156 16.59 0C13.7322 3.00159 11.6416 6.36877 10.6059 10.4094C7.42209 8.15818 3.93139 6.96523 0.133824 6.38801C-0.19223 9.98607 0.0379262 13.4879 1.26542 16.8936C4.0273 16.3933 6.73162 16.4702 9.3976 17.1822C12.0828 17.8941 14.4802 19.2025 16.5517 20.9919C16.6092 20.9727 16.6283 20.9727 16.6475 20.9727C16.6633 20.9621 16.6806 20.9515 16.6986 20.9405C16.7458 20.9116 16.7976 20.8799 16.8394 20.8381C21.1355 17.2977 26.0456 15.9893 31.5501 16.8551C31.8953 16.9128 31.9721 16.759 32.0488 16.5088C33.1228 13.3148 33.3722 10.0246 33.0845 6.69587C33.0758 6.65232 33.0632 6.61272 33.0485 6.56636C33.0306 6.51029 33.0096 6.44432 32.9885 6.34952C32.6893 6.41304 32.3918 6.47308 32.096 6.53279C31.406 6.67204 30.7253 6.80941 30.0541 6.98448ZM101.767 8.77395H92.1583C93.0214 9.85144 93.1557 10.9867 93.1748 12.1026L93.1749 12.1217C93.1941 16.8678 93.2132 21.5948 93.1748 26.3409C93.1557 27.8225 93.7887 28.8038 94.9585 29.5734C96.1704 30.3704 97.4673 30.2949 98.7697 30.2191C99.3224 30.1869 99.8761 30.1547 100.425 30.1891C99.5041 29.689 99.2932 28.9 99.3124 27.9765V25.9177V22.2618C99.717 22.2618 100.115 22.2586 100.508 22.2554C101.476 22.2476 102.413 22.2401 103.34 22.2812C103.704 22.3004 104.126 22.4927 104.357 22.7621C106.006 24.7247 107.617 26.6873 109.19 28.6884C109.842 29.5158 110.667 30.0929 111.683 30.1314C113.212 30.1858 114.74 30.173 116.208 30.1608C116.821 30.1557 117.424 30.1506 118.013 30.1506C116.316 28.7869 114.845 27.1335 113.356 25.4602C112.387 24.3714 111.411 23.2741 110.36 22.2426C110.681 22.0556 110.998 21.8816 111.309 21.7111C111.925 21.3729 112.516 21.0486 113.064 20.6648C115.212 19.1256 115.999 16.9706 115.615 14.3731C115.27 11.9487 113.927 10.294 111.664 9.46661C110.705 9.12028 109.65 8.87014 108.634 8.83167C106.858 8.75682 105.071 8.7635 103.29 8.77015C102.782 8.77204 102.274 8.77395 101.767 8.77395ZM99.3699 18.1635V13.007C100.169 13.007 100.963 12.9986 101.753 12.9902C103.638 12.9703 105.503 12.9505 107.368 13.0454C108.864 13.1224 109.593 14.123 109.574 15.566C109.554 16.9129 108.768 17.8364 107.349 18.0289C106.521 18.1365 105.681 18.1458 104.848 18.155C104.639 18.1573 104.43 18.1596 104.222 18.1635C103.165 18.1764 102.098 18.1721 101.018 18.1678C100.472 18.1657 99.9233 18.1635 99.3699 18.1635ZM64.0689 29.6664C64.3961 29.2646 64.7159 28.8722 64.9225 28.4188C67.0508 23.8947 69.1445 19.3591 71.2393 14.8209L71.2403 14.8189C71.8447 13.5095 72.4492 12.1998 73.0547 10.8902L73.0716 10.8533C73.3731 10.1922 73.6751 9.53 72.9972 8.81218H83.0473C83.0665 9.02383 83.0665 9.23762 83.0665 9.44713C83.0665 9.86614 83.0665 10.2681 83.2199 10.6016C85.9818 16.6433 88.7629 22.685 91.5823 28.6881C91.7702 29.0922 92.0898 29.4303 92.4094 29.7684C92.5463 29.9132 92.6832 30.0581 92.8098 30.2082C92.77 30.2082 92.7171 30.2148 92.6551 30.2225C92.5675 30.2334 92.4617 30.2466 92.3495 30.2466C91.8646 30.2466 91.3809 30.2454 90.8978 30.2442C89.4509 30.2406 88.0095 30.237 86.5571 30.2659C86.1161 30.2659 85.8667 30.1313 85.6941 29.7079C85.2145 28.592 84.6967 27.4759 84.1405 26.3792C84.0254 26.1483 83.6611 25.9174 83.4117 25.9174C79.9209 25.8789 76.4495 25.8789 72.9587 25.9174C72.6903 25.9174 72.3067 26.1868 72.1917 26.4369C71.87 27.06 71.574 27.7024 71.2777 28.3455L71.2772 28.3465C71.0613 28.8152 70.8452 29.2842 70.6189 29.7464C70.523 29.958 70.2544 30.2274 70.0627 30.2274C68.3104 30.2736 66.558 30.2705 64.855 30.2674C64.4331 30.2666 64.0142 30.2659 63.5991 30.2659C63.7495 30.0585 63.9101 29.8613 64.0689 29.6664ZM79.9073 17.4428L79.9066 17.4413C79.3424 16.2565 78.7781 15.0717 78.1948 13.8533L77.7169 14.8598C76.7234 16.9523 75.771 18.9581 74.7617 21.0494H81.628C81.0416 19.8247 80.4745 18.6338 79.9073 17.4428ZM160.629 15.2774C161.434 13.4495 162.24 11.6216 163.027 9.8514C162.699 9.81027 162.38 9.77632 162.067 9.74297C161.354 9.6671 160.67 9.59436 159.977 9.44734C156.429 8.73542 152.861 8.17743 149.236 8.65845C146.839 8.98555 144.652 9.77444 142.945 11.6023C140.644 14.0459 140.414 18.6061 144.71 20.3185C145.458 20.6264 146.244 20.9342 147.031 21.069C148.191 21.2709 149.36 21.4392 150.53 21.6075C151.7 21.7759 152.87 21.9443 154.031 22.1464C154.952 22.3003 155.891 22.5312 156.716 22.9353C157.79 23.4548 157.809 24.6862 156.792 25.3211C156.294 25.6289 155.681 25.8791 155.105 25.9369C150.751 26.3409 146.57 25.8598 142.696 23.5125C142.542 24.0854 142.386 24.6647 142.23 25.2441L142.227 25.2523L142.225 25.2601C141.916 26.4071 141.607 27.5538 141.315 28.6498C141.641 28.7043 141.957 28.7467 142.266 28.7882L142.268 28.7884C142.832 28.8641 143.372 28.9365 143.904 29.0732C147.798 30.0352 151.69 30.8626 155.738 30.4008C158.059 30.1314 160.227 29.5157 162.01 27.8994C164.388 25.7637 165.002 20.761 160.667 18.7022C160.556 18.6531 160.444 18.6009 160.333 18.5484C159.964 18.3749 159.588 18.1988 159.19 18.125C157.89 17.8733 156.584 17.642 155.278 17.411C154.388 17.2534 153.498 17.0959 152.611 16.932C152.308 16.8771 152.005 16.826 151.701 16.7748C150.621 16.5929 149.544 16.4117 148.527 16.0662C147.414 15.7007 147.357 14.4885 148.335 13.815C148.699 13.5649 149.14 13.3532 149.581 13.2763C153.475 12.6029 157.273 12.5066 160.629 15.2774ZM115.883 8.8316H124.437C123.785 10.0438 123.689 11.2945 123.689 12.5836V22.0693C123.689 24.0127 124.552 25.0902 126.451 25.552C128.062 25.9369 129.692 25.9177 131.265 25.3403C132.684 24.8401 133.336 23.8781 133.336 22.3773C133.339 21.8816 133.342 21.3859 133.345 20.8901C133.364 17.9417 133.383 14.9933 133.317 12.0449C133.304 11.3137 133.159 10.5914 133.013 9.86588C132.943 9.52226 132.874 9.17792 132.818 8.8316H141.085C139.896 9.69745 139.857 10.9289 139.838 12.1218C139.831 13.2844 139.835 14.4469 139.84 15.6095C139.847 17.3523 139.853 19.0952 139.819 20.838C139.8 22.0501 139.666 23.3008 139.359 24.4553C138.649 27.1105 136.865 28.8999 134.314 29.7851C130.517 31.1127 126.662 31.1319 122.864 29.8428C119.354 28.6498 117.475 26.0523 117.283 22.3965C117.168 20.2797 117.172 18.1544 117.176 16.0263V16.0242C117.179 14.9612 117.181 13.8975 117.168 12.8337C117.168 12.218 117.168 11.6023 117.091 11.0058C117.053 10.1977 116.823 9.40884 115.883 8.8316ZM70.5617 8.83159H62.7938C63.4267 9.56275 63.3116 10.2362 63.0049 10.8904C61.5472 13.9882 60.0895 17.1052 58.6319 20.2222C57.8839 21.7808 57.1359 23.3393 56.3494 24.9748C56.2933 24.8783 56.2439 24.8019 56.2012 24.7359C56.1418 24.6442 56.0952 24.5721 56.0617 24.4938C53.952 20.0298 51.8423 15.566 49.7325 11.102C49.3682 10.3516 49.138 9.60122 49.8093 8.79311H42.003C42.0771 8.89919 42.1526 9.00234 42.2271 9.10417C42.423 9.37178 42.6122 9.63033 42.7511 9.90908C44.1599 12.9184 45.5639 15.9277 46.9679 18.937C48.3738 21.9501 49.7796 24.9632 51.1902 27.9763C51.5354 28.7267 51.8231 29.4579 51.1902 30.2275H61.5089C60.7992 29.5156 61.0869 28.8038 61.3938 28.1303C62.794 25.1174 64.1943 22.1092 65.5946 19.1011L65.5987 19.0923L65.6065 19.0754L65.607 19.0744C66.9836 16.1171 68.3603 13.1598 69.7369 10.1977C69.9068 9.85676 70.1186 9.52631 70.3336 9.19085C70.4098 9.07197 70.4864 8.95241 70.5617 8.83159ZM10.6248 31.7478C6.17515 30.6125 1.20763 23.5127 1.64875 18.9525C6.63548 18.1058 11.0852 19.2603 15.0936 22.5121C12.7154 25.1673 11.2386 28.2266 10.6248 31.7478ZM14.4037 32.8829C13.8284 32.806 13.2722 32.6906 12.6776 32.5366C13.6557 23.8974 22.2099 17.1054 31.5695 19.0102C31.5471 19.2012 31.528 19.3937 31.5088 19.587C31.4622 20.0559 31.4152 20.5288 31.3201 20.992C30.0927 27.3608 24.7607 32.2673 18.3548 32.9215C17.5821 33.0039 16.8094 33.0016 16.0368 32.9992C15.908 32.9988 15.7793 32.9984 15.6505 32.9984L15.4394 32.9792C15.1036 32.9615 14.8002 32.9274 14.4844 32.8919C14.4576 32.8889 14.4307 32.8859 14.4037 32.8829Z" fill="black"/>
</g>
<defs>
<clipPath id="clip0_5_294">
<rect width="164" height="33" fill="white"/>
</clipPath>
</defs>
</svg>
