<svg width="135" height="34" viewBox="0 0 135 34" fill="none" xmlns="http://www.w3.org/2000/svg">
<g clip-path="url(#clip0_5_296)">
<path fill-rule="evenodd" clip-rule="evenodd" d="M33.8744 16.7897C33.8744 25.9021 26.4899 33.2897 17.3774 33.2897C8.265 33.2897 0.877441 25.9021 0.877441 16.7897C0.877441 7.67723 8.265 0.289673 17.3774 0.289673C26.4899 0.289673 33.8744 7.67723 33.8744 16.7897ZM17.5077 25.9901C12.9757 26.0055 8.25884 22.1371 8.23762 15.9228C8.22244 11.8152 10.4415 7.85917 13.2728 5.51286C16.0375 3.22717 19.8237 1.75692 23.2553 1.7448C23.6978 1.7448 24.1617 1.78111 24.4436 1.87812C21.4425 2.49957 19.0537 5.29452 19.0628 8.46237C19.0628 8.5684 19.0718 8.68058 19.0839 8.73214C24.107 9.95684 26.3866 12.9883 26.4018 17.1807C26.4139 21.3762 23.1037 25.9719 17.5077 25.9901ZM97.1218 9.49905C97.4128 9.59013 97.6068 9.66293 97.7068 9.71133L98.0554 7.14071C97.9736 7.08917 97.6856 6.99526 97.1945 6.85271C96.7034 6.71017 96.085 6.64044 95.3363 6.64044C94.7694 6.64044 94.245 6.71919 93.7599 6.87692C93.2779 7.03455 92.8566 7.28615 92.4989 7.6287C92.1412 7.96822 91.8623 8.41082 91.6622 8.95041C91.4621 9.49304 91.3621 10.1539 91.3621 10.936V11.5847H89.7645V14.0826H91.3621V23.6224H94.4602V14.0826H97.0339V11.5847H94.4359V11.0118C94.4359 10.4297 94.5815 10.0084 94.8725 9.7507C95.1635 9.49312 95.5273 9.36267 95.9577 9.36267C96.4427 9.36267 96.8277 9.4082 97.1218 9.49905ZM71.585 13.8825C72.1003 13.8825 72.655 14.0007 73.2522 14.2341V20.2C73.0855 20.4819 72.8036 20.7304 72.4065 20.9396C72.0093 21.1458 71.6213 21.2519 71.2394 21.2519C70.7756 21.2519 70.3724 21.1458 70.0329 20.9396C69.6934 20.7305 69.4114 20.4546 69.1901 20.1121C68.9658 19.7695 68.7991 19.3663 68.693 18.9086C68.5838 18.4478 68.5293 17.9689 68.5293 17.4687C68.5293 17.017 68.5929 16.5774 68.7172 16.153C68.8415 15.7256 69.0264 15.3406 69.275 14.9981C69.5236 14.6555 69.8389 14.3856 70.2208 14.1856C70.5997 13.9857 71.0575 13.8825 71.585 13.8825ZM73.3765 22.7009L73.5008 23.6224H76.3473V6.96481H73.2522V11.6332C72.5217 11.4027 71.8396 11.2846 71.2091 11.2846C70.2481 11.2846 69.4084 11.4665 68.696 11.8242C67.9806 12.1819 67.3895 12.6548 66.9135 13.2459C66.4406 13.8371 66.089 14.507 65.8556 15.2557C65.6252 16.0045 65.51 16.7715 65.51 17.5536C65.51 18.3872 65.6222 19.1875 65.8434 19.9514C66.0678 20.7183 66.3982 21.3944 66.8287 21.9764C67.2591 22.5584 67.7896 23.0253 68.4232 23.3739C69.0507 23.7225 69.7843 23.8983 70.6119 23.8983C71.2424 23.8983 71.7911 23.777 72.2549 23.5345C72.7217 23.295 73.0946 23.0162 73.3765 22.7009ZM60.9027 17.5415C60.9027 17.0413 60.8451 16.5654 60.7268 16.1137C60.6116 15.662 60.4358 15.274 60.2024 14.9497C59.969 14.6223 59.6871 14.3646 59.3536 14.1736C59.0201 13.9796 58.6291 13.8826 58.1804 13.8826C57.7318 13.8826 57.3377 13.9796 57.0073 14.1736C56.6738 14.3645 56.3889 14.6223 56.1585 14.9497C55.9251 15.274 55.7492 15.662 55.634 16.1137C55.5158 16.5654 55.4582 17.0413 55.4582 17.5415C55.4582 18.0599 55.5158 18.5419 55.634 18.9844C55.7493 19.427 55.919 19.8151 56.1433 20.1485C56.3676 20.482 56.6526 20.7457 56.9952 20.9397C57.3347 21.1306 57.7318 21.2277 58.1804 21.2277C58.6291 21.2277 59.0201 21.1307 59.3536 20.9397C59.6871 20.7457 59.969 20.482 60.2024 20.1485C60.4358 19.8151 60.6116 19.427 60.7268 18.9844C60.845 18.5419 60.9027 18.0599 60.9027 17.5415ZM63.9492 17.5547C63.9492 18.3398 63.828 19.1098 63.5885 19.8677C63.346 20.6255 62.9883 21.3015 62.5123 21.9017C62.0394 22.502 61.4392 22.984 60.7147 23.3508C59.9902 23.7176 59.1444 23.8995 58.1804 23.8995C57.2134 23.8995 56.3677 23.7175 55.6462 23.3508C54.9217 22.984 54.3215 22.502 53.8455 21.9018C53.3726 21.3015 53.0149 20.6255 52.7724 19.8677C52.5329 19.1098 52.4117 18.3398 52.4117 17.5547C52.4117 16.7726 52.5329 16.0087 52.7724 15.2569C53.0149 14.5081 53.3726 13.8382 53.8455 13.2471C54.3215 12.6559 54.9217 12.183 55.6462 11.8253C56.3677 11.4676 57.2134 11.2858 58.1804 11.2858C59.1444 11.2858 59.9872 11.4677 60.7026 11.8253C61.418 12.183 62.0182 12.6559 62.5002 13.2471C62.9852 13.8382 63.346 14.5081 63.5885 15.2569C63.828 16.0087 63.9492 16.7726 63.9492 17.5547ZM44.5298 23.6224L39.4855 11.5847H42.7806L45.9273 19.5785L48.9769 11.5847H52.1235L47.2277 23.6224H44.5298ZM85.0659 17.978C84.7325 17.9956 84.3869 18.0266 84.0352 18.066C83.6836 18.1085 83.3501 18.163 83.0318 18.2297C82.3589 18.363 81.895 18.5904 81.6344 18.9148C81.3767 19.2422 81.2463 19.5938 81.2463 19.9788C81.2463 20.3759 81.3918 20.6973 81.6859 20.9398C81.9799 21.1793 82.3922 21.3005 82.9288 21.3005C83.3319 21.3005 83.723 21.2186 84.0989 21.0519C84.4748 20.8852 84.7991 20.676 85.0659 20.4275V17.978ZM85.3145 23.6134L85.1932 22.7131C84.8568 23.0829 84.4324 23.374 83.914 23.5831C83.3956 23.7923 82.8287 23.8984 82.2103 23.8984C81.692 23.8984 81.1918 23.8104 80.7189 23.6347C80.2399 23.462 79.8185 23.2103 79.4517 22.8859C79.0849 22.5615 78.7879 22.1644 78.5635 21.6885C78.3362 21.2125 78.224 20.676 78.224 20.0758C78.224 19.4786 78.3392 18.9481 78.5757 18.4903C78.8091 18.0326 79.1243 17.6476 79.5275 17.3293C79.9277 17.014 80.3884 16.7564 80.9068 16.5563C81.4222 16.3564 81.9678 16.2046 82.5347 16.1046C82.9348 16.0228 83.3744 15.962 83.8503 15.9196C84.3263 15.8771 84.7234 15.8409 85.0417 15.8074V15.6317C85.0417 14.9647 84.8719 14.4918 84.5263 14.2069C84.1838 13.9249 83.7109 13.7825 83.1107 13.7825C82.759 13.7825 82.4225 13.8249 82.1042 13.9098C81.7859 13.9917 81.504 14.0949 81.2524 14.2191C81.0008 14.3464 80.7795 14.4707 80.5855 14.595C80.3945 14.7193 80.2399 14.8314 80.1217 14.9314L79.0971 12.7609C79.2304 12.6428 79.4335 12.5033 79.7094 12.3366C79.9853 12.1698 80.3157 12.0061 80.7098 11.8485C81.1008 11.6907 81.5404 11.5575 82.0315 11.4483C82.5225 11.3392 83.053 11.2846 83.6169 11.2846C84.2838 11.2846 84.8931 11.3727 85.4418 11.5484C85.9905 11.7242 86.4664 11.9971 86.8666 12.3729C87.2637 12.7458 87.5759 13.2187 87.8033 13.7947C88.0276 14.3676 88.1398 15.0618 88.1398 15.8772V23.6134H85.3145ZM106.149 17.5415C106.149 17.0413 106.089 16.5654 105.973 16.1137C105.858 15.662 105.682 15.274 105.449 14.9497C105.216 14.6223 104.934 14.3646 104.6 14.1736C104.267 13.9796 103.876 13.8826 103.427 13.8826C102.978 13.8826 102.584 13.9796 102.254 14.1736C101.92 14.3645 101.635 14.6223 101.402 14.9497C101.172 15.274 100.996 15.662 100.878 16.1137C100.762 16.5654 100.705 17.0413 100.705 17.5415C100.705 18.0599 100.762 18.5419 100.878 18.9844C100.996 19.427 101.166 19.8151 101.39 20.1485C101.614 20.482 101.899 20.7457 102.239 20.9397C102.581 21.1306 102.978 21.2277 103.427 21.2277C103.876 21.2277 104.267 21.1307 104.6 20.9397C104.934 20.7457 105.216 20.482 105.449 20.1485C105.682 19.8151 105.858 19.427 105.973 18.9844C106.089 18.5419 106.149 18.0599 106.149 17.5415ZM109.196 17.5547C109.196 18.3398 109.075 19.1098 108.832 19.8677C108.593 20.6255 108.235 21.3015 107.759 21.9017C107.286 22.502 106.686 22.984 105.961 23.3508C105.237 23.7176 104.391 23.8995 103.427 23.8995C102.46 23.8995 101.614 23.7175 100.893 23.3508C100.168 22.984 99.568 22.502 99.0921 21.9018C98.6192 21.3015 98.2615 20.6255 98.019 19.8677C97.7764 19.1098 97.6582 18.3398 97.6582 17.5547C97.6582 16.7726 97.7764 16.0087 98.019 15.2569C98.2615 14.5081 98.6192 13.8382 99.0921 13.2471C99.568 12.6559 100.168 12.183 100.893 11.8253C101.614 11.4676 102.46 11.2858 103.427 11.2858C104.391 11.2858 105.234 11.4677 105.949 11.8253C106.665 12.183 107.265 12.6559 107.747 13.2471C108.232 13.8382 108.593 14.5081 108.832 15.2569C109.075 16.0087 109.196 16.7726 109.196 17.5547ZM118.808 16.7564V23.6225H121.907V16.5048C121.907 15.5741 121.8 14.7739 121.594 14.1069C121.385 13.4431 121.091 12.9004 120.706 12.4851C120.324 12.0698 119.866 11.7667 119.333 11.5727C118.799 11.3817 118.217 11.2877 117.584 11.2877C116.968 11.2877 116.356 11.3939 115.75 11.6121C115.14 11.8273 114.598 12.1365 114.113 12.5337L113.964 11.5848H111.142V23.6225H114.237V15.083C114.537 14.7829 114.892 14.5071 115.301 14.2585C115.707 14.0069 116.153 13.8826 116.635 13.8826C117.32 13.8826 117.851 14.1342 118.236 14.6314C118.617 15.1316 118.808 15.8409 118.808 16.7564ZM131.54 16.1561C131.507 15.7408 131.419 15.377 131.277 15.0709C131.134 14.7617 130.958 14.5131 130.749 14.3221C130.54 14.1281 130.316 13.9886 130.073 13.8947C129.828 13.8038 129.582 13.7583 129.33 13.7583C128.794 13.7583 128.285 13.9583 127.8 14.3585C127.314 14.7587 127.03 15.3558 126.945 16.1561H131.54ZM126.872 18.3781C126.939 19.3936 127.254 20.1273 127.824 20.5759C128.391 21.0246 129.127 21.2519 130.028 21.2519C130.446 21.2519 130.84 21.2125 131.207 21.1397C131.574 21.0641 131.901 20.9699 132.186 20.8518C132.471 20.7365 132.713 20.6183 132.914 20.5031C133.114 20.385 133.262 20.2758 133.365 20.1758L134.19 22.7009C134.072 22.7827 133.884 22.8949 133.626 23.0374C133.368 23.1799 133.047 23.3102 132.665 23.4375C132.283 23.5618 131.831 23.6679 131.316 23.7619C130.801 23.8528 130.234 23.8983 129.618 23.8983C128.833 23.8983 128.091 23.774 127.381 23.5254C126.675 23.2738 126.053 22.8858 125.523 22.3614C124.989 21.8369 124.565 21.1852 124.25 20.4031C123.931 19.621 123.774 18.6873 123.774 17.6051C123.774 16.5895 123.919 15.6892 124.21 14.9071C124.501 14.125 124.901 13.4672 125.408 12.9337C125.917 12.4032 126.508 11.9939 127.181 11.709C127.857 11.4271 128.576 11.2846 129.342 11.2846C130.109 11.2846 130.816 11.4119 131.468 11.6605C132.116 11.909 132.677 12.2971 133.153 12.8215C133.626 13.3459 134.002 14.0249 134.275 14.8586C134.55 15.6892 134.687 16.6805 134.687 17.8294V18.3781H126.872Z" fill="black"/>
</g>
<defs>
<clipPath id="clip0_5_296">
<rect width="135" height="34" fill="white"/>
</clipPath>
</defs>
</svg>
