<svg width="97" height="33" viewBox="0 0 97 33" fill="none" xmlns="http://www.w3.org/2000/svg">
<g clip-path="url(#clip0_5_282)">
<path d="M67.3733 26.8149H61.7238C57.0699 26.8149 53.1366 23.7297 51.8516 19.4896H61.0118V13.5015H51.8516C53.1366 9.2672 57.0728 6.18485 61.7238 6.18485H67.3733V26.8149ZM80.49 16.497L92.6197 4.37017V-0.000122786H88.041L73.8593 14.1758V-0.000122786H18.6374V6.18485H30.2664V32.9999H36.7524V6.18485H48.4393C46.3033 8.90542 45.0212 12.4132 45.0212 16.497C45.0212 26.3258 52.6099 32.9999 61.7238 32.9999H73.8593V18.8211L88.041 32.9999H96.9929L80.49 16.497ZM18.5998 32.9999H24.7876V26.8149H18.5998V32.9999ZM5.24002 -0.000122786H0.00146484V6.18485H5.24002C10.933 6.18485 15.5551 10.8011 15.5551 16.497C15.5551 22.1957 10.933 26.8149 5.24002 26.8149H0.00146484V32.9999H5.24002C14.351 32.9999 21.9426 26.3258 21.9426 16.497C21.9426 6.54663 14.351 -0.000122786 5.24002 -0.000122786Z" fill="black"/>
</g>
<defs>
<clipPath id="clip0_5_282">
<rect width="97" height="33" fill="white"/>
</clipPath>
</defs>
</svg>
