<svg width="134" height="33" viewBox="0 0 134 33" fill="none" xmlns="http://www.w3.org/2000/svg">
<g clip-path="url(#clip0_5_286)">
<path fill-rule="evenodd" clip-rule="evenodd" d="M17.002 12.671L17.0117 12.6711H16.9923L17.002 12.671ZM17.832 12.502C17.5689 12.6118 17.287 12.6691 17.002 12.671C16.7169 12.6691 16.435 12.6118 16.1718 12.502C15.9057 12.3912 15.664 12.2289 15.4607 12.0246C15.2572 11.8203 15.096 11.5778 14.9863 11.3113C14.8766 11.0447 14.8203 10.759 14.821 10.4707V2.39647C14.7924 2.09279 14.8275 1.78647 14.924 1.49712C15.0205 1.20778 15.1764 0.941788 15.3818 0.716191C15.5871 0.490593 15.8373 0.31036 16.1162 0.187032C16.3953 0.0637038 16.6969 0 17.002 0C17.307 0 17.6086 0.0637038 17.8876 0.187032C18.1667 0.31036 18.4168 0.490593 18.6221 0.716191C18.8274 0.941788 18.9833 1.20778 19.0799 1.49712C19.1765 1.78647 19.2115 2.09279 19.1828 2.39647V10.4707C19.1835 10.759 19.1274 11.0447 19.0176 11.3113C18.9078 11.5778 18.7466 11.8203 18.5433 12.0246C18.3398 12.2289 18.0982 12.3912 17.832 12.502ZM71.8462 6.54946C71.8436 7.15472 71.6619 7.74567 71.3237 8.24769C70.9857 8.74973 70.5064 9.14033 69.9465 9.37021C69.3865 9.60008 68.7711 9.65893 68.1778 9.5393C67.5844 9.41968 67.0399 9.12695 66.6128 8.69808C66.1857 8.2692 65.8952 7.72341 65.7781 7.12959C65.6609 6.53578 65.7223 5.92055 65.9545 5.36161C66.1868 4.80266 66.5794 4.32504 67.0827 3.98902C67.5862 3.65302 68.1779 3.47369 68.7831 3.47369C69.1863 3.47452 69.5851 3.55474 69.9572 3.70977C70.3293 3.8648 70.6672 4.09159 70.9517 4.37721C71.2361 4.66281 71.4615 5.00165 71.615 5.37437C71.7684 5.74709 71.847 6.14639 71.8462 6.54946ZM79.7723 6.54946C79.7698 7.15472 79.588 7.74567 79.2498 8.24769C78.9118 8.74973 78.4326 9.14033 77.8726 9.37021C77.3127 9.60008 76.6973 9.65893 76.1039 9.5393C75.5106 9.41968 74.966 9.12695 74.5389 8.69808C74.1118 8.2692 73.8213 7.72341 73.7042 7.12959C73.587 6.53578 73.6485 5.92055 73.8806 5.36161C74.1129 4.80266 74.5055 4.32504 75.0089 3.98902C75.5123 3.65302 76.104 3.47369 76.7092 3.47369C77.1124 3.47452 77.5114 3.55474 77.8834 3.70977C78.2555 3.8648 78.5933 4.09159 78.8778 4.37721C79.1622 4.66281 79.3876 5.00165 79.5411 5.37437C79.6946 5.74709 79.7731 6.14639 79.7723 6.54946ZM54.3001 12.2812L50.4369 16.9768L55.3042 23.0133C55.3559 23.0752 55.3891 23.1507 55.3997 23.2308C55.4103 23.3109 55.3979 23.3924 55.3639 23.4656C55.33 23.5389 55.2758 23.601 55.2079 23.6447C55.1399 23.6883 55.0609 23.7118 54.98 23.7122H51.9682C51.824 23.7035 51.6839 23.661 51.5592 23.5882C51.4344 23.5153 51.3286 23.4142 51.2501 23.2928L47.6855 18.845V23.0578C47.6997 23.1444 47.6932 23.2332 47.6663 23.3169C47.6395 23.4005 47.5931 23.4765 47.5309 23.5387C47.4688 23.6008 47.3928 23.6472 47.3092 23.6741C47.2256 23.7009 47.1368 23.7075 47.05 23.6932H44.915C44.8284 23.7075 44.7395 23.7009 44.656 23.6741C44.5724 23.6472 44.4963 23.6008 44.4342 23.5387C44.3721 23.4765 44.3257 23.4005 44.2988 23.3169C44.272 23.2332 44.2654 23.1444 44.2797 23.0578V12.154C44.2654 12.0674 44.272 11.9785 44.2988 11.895C44.3257 11.8113 44.3721 11.7353 44.4342 11.6731C44.4963 11.611 44.5724 11.5646 44.656 11.5377C44.7395 11.5109 44.8284 11.5043 44.915 11.5186H47.0374C47.1238 11.5058 47.212 11.5133 47.295 11.5407C47.3779 11.568 47.4534 11.6146 47.5151 11.6763C47.5769 11.7381 47.6233 11.8135 47.6506 11.8964C47.6781 11.9794 47.6856 12.0676 47.6728 12.154V15.3311L50.3161 11.957C50.4091 11.8362 50.5284 11.7379 50.6649 11.6696C50.8013 11.6015 50.9515 11.565 51.104 11.5631H54.0015C54.4209 11.5631 54.5797 11.9444 54.3001 12.2812ZM110.25 11.5112H101.194C101.057 11.5112 100.926 11.5656 100.829 11.6626C100.732 11.7595 100.677 11.891 100.677 12.0281V14.3828C100.677 14.5199 100.732 14.6513 100.829 14.7483C100.926 14.8452 101.057 14.8997 101.194 14.8997H104.053V23.1954C104.053 23.3324 104.108 23.4639 104.205 23.5608C104.301 23.6578 104.432 23.7122 104.57 23.7122H106.905C107.043 23.7122 107.175 23.6578 107.271 23.5608C107.368 23.4639 107.422 23.3324 107.422 23.1954V14.8997H110.25C110.387 14.8997 110.518 14.8452 110.615 14.7483C110.712 14.6513 110.766 14.5199 110.766 14.3828V12.0281C110.766 11.891 110.712 11.7595 110.615 11.6626C110.518 11.5656 110.387 11.5112 110.25 11.5112ZM80.5791 20.9933H83.4966C85.4159 20.9933 85.2817 18.7093 83.4966 18.7093H80.5791V20.9933ZM82.78 14.2371H80.5791V16.1564H82.78C83.0346 16.1564 83.2787 16.0554 83.4586 15.8753C83.6386 15.6953 83.7397 15.4512 83.7397 15.1967C83.7397 14.9422 83.6386 14.6981 83.4586 14.5181C83.2787 14.3381 83.0346 14.2371 82.78 14.2371ZM83.4966 11.5115C86.8107 11.5115 88.2503 14.9791 86.0942 17.0522C89.5491 18.7093 88.3911 23.7125 84.0532 23.7125H77.8023C77.6649 23.7125 77.5331 23.6578 77.4359 23.5607C77.3387 23.4635 77.2841 23.3316 77.2841 23.1943V12.0297C77.2841 11.8923 77.3387 11.7604 77.4359 11.6633C77.5331 11.566 77.6649 11.5115 77.8023 11.5115H83.4966ZM74.6129 12.0297C74.6129 11.8923 74.5583 11.7604 74.4611 11.6633C74.3639 11.566 74.2321 11.5115 74.0947 11.5115H71.4011C71.2637 11.5115 71.1318 11.566 71.0346 11.6633C70.9375 11.7604 70.8828 11.8923 70.8828 12.0297V23.1943C70.8828 23.3316 70.9375 23.4635 71.0346 23.5607C71.1318 23.6578 71.2637 23.7125 71.4011 23.7125H74.0947C74.2321 23.7125 74.3639 23.6578 74.4611 23.5607C74.5583 23.4635 74.6129 23.3316 74.6129 23.1943V12.0297ZM127.022 17.1329H128.849V17.1137C130.101 17.1137 130.421 16.3919 130.421 15.6956C130.421 14.8843 130.005 14.3221 128.804 14.3221H127.022V17.1329ZM124.135 11.5115H129.105L129.066 11.5306C131.609 11.5306 133.735 13.1851 133.735 15.7403C133.735 18.4616 131.66 19.8988 128.926 19.8988H127.01V23.195C127.01 23.3323 126.955 23.4639 126.858 23.5609C126.761 23.6579 126.629 23.7125 126.492 23.7125H124.135C123.997 23.7125 123.866 23.6579 123.769 23.5609C123.671 23.4639 123.618 23.3323 123.618 23.195V12.0288C123.618 11.8917 123.671 11.7601 123.769 11.6631C123.866 11.566 123.997 11.5115 124.135 11.5115ZM114.773 18.9021L116.112 14.9124L117.45 18.9021H114.773ZM122.511 23.0702L118.38 11.9807C118.341 11.8349 118.25 11.708 118.126 11.6228C118.001 11.5375 117.849 11.4995 117.699 11.5154H114.557C114.406 11.4979 114.252 11.5351 114.126 11.6205C114.001 11.7059 113.909 11.8337 113.869 11.9807L109.726 23.0702C109.684 23.1379 109.662 23.2162 109.663 23.2958C109.664 23.3754 109.688 23.4531 109.731 23.5198C109.775 23.5866 109.837 23.6396 109.909 23.6728C109.981 23.706 110.061 23.7181 110.141 23.7075H112.779C112.89 23.7015 112.997 23.6634 113.088 23.5979C113.179 23.5323 113.248 23.442 113.289 23.3379L113.831 21.7126H118.38L118.917 23.3379C118.957 23.442 119.026 23.5323 119.117 23.5979C119.207 23.6634 119.315 23.7015 119.426 23.7075H122.065C122.144 23.7195 122.225 23.7086 122.298 23.6759C122.372 23.6433 122.434 23.5903 122.479 23.5233C122.523 23.4563 122.547 23.378 122.548 23.2977C122.55 23.2174 122.527 23.1384 122.485 23.0702H122.511ZM68.2967 12.0297V23.1943H68.3287C68.3271 23.3323 68.271 23.4641 68.1728 23.5611C68.0746 23.6581 67.9421 23.7125 67.8041 23.7125H65.4432C65.3058 23.7125 65.1739 23.6578 65.0768 23.5607C64.9795 23.4635 64.925 23.3316 64.925 23.1943V16.9114L60.1265 23.4501C60.0747 23.5289 60.0046 23.594 59.9221 23.6397C59.8396 23.6854 59.7473 23.7103 59.653 23.7125H57.0554C56.9179 23.7125 56.7861 23.6578 56.689 23.5607C56.5917 23.4635 56.5372 23.3316 56.5372 23.1943V12.0297C56.5372 11.8923 56.5917 11.7604 56.689 11.6633C56.7861 11.566 56.9179 11.5115 57.0554 11.5115H59.4226C59.5601 11.5115 59.6919 11.566 59.7891 11.6633C59.8863 11.7604 59.9409 11.8923 59.9409 12.0297V18.3126L64.7394 11.7738C64.7918 11.6941 64.863 11.6285 64.9466 11.5828C65.0303 11.537 65.1239 11.5126 65.2193 11.5115H67.7784C67.9159 11.5115 68.0477 11.566 68.1449 11.6633C68.2421 11.7604 68.2967 11.8923 68.2967 12.0297ZM99.886 21.3988L98.4884 19.9247C98.44 19.8649 98.3787 19.8166 98.3091 19.7835C98.2396 19.7503 98.1635 19.7332 98.0865 19.7333C97.9563 19.7359 97.8315 19.7858 97.7355 19.8736C96.9879 20.541 96.0192 20.9071 95.017 20.9011C94.1488 20.9011 93.3162 20.5561 92.7023 19.9422C92.0884 19.3283 91.7434 18.4957 91.7434 17.6275C91.7434 16.7593 92.0884 15.9265 92.7023 15.3126C93.3162 14.6987 94.1488 14.3539 95.017 14.3539C96.0187 14.3442 96.9879 14.7082 97.7355 15.3748C97.8302 15.4648 97.9558 15.5151 98.0865 15.5153C98.1635 15.5153 98.2396 15.4981 98.3091 15.465C98.3787 15.4319 98.44 15.3837 98.4884 15.3238L99.886 13.8497C99.9772 13.7558 100.028 13.6296 100.026 13.4988C100.027 13.43 100.013 13.3618 99.9872 13.2983C99.9609 13.2347 99.9221 13.177 99.8732 13.1286C99.2459 12.4882 98.496 11.9808 97.6682 11.6364C96.8404 11.2922 95.9518 11.1182 95.0553 11.1249C93.3702 11.1777 91.7718 11.8843 90.5985 13.095C89.4252 14.3057 88.7691 15.9255 88.7691 17.6115C88.7691 19.2975 89.4252 20.9173 90.5985 22.1279C91.7718 23.3386 93.3702 24.0453 95.0553 24.098C95.9522 24.1101 96.8423 23.9412 97.6723 23.6013C98.5023 23.2614 99.2552 22.7575 99.886 22.1199C99.9355 22.072 99.9746 22.0143 100.001 21.9507C100.027 21.8871 100.04 21.8187 100.039 21.7498C100.04 21.6188 99.9898 21.4928 99.8988 21.3988H99.886ZM11.894 16.4077C11.8065 16.6821 11.6657 16.9365 11.4796 17.1564C11.2934 17.3762 11.0656 17.5571 10.8094 17.6886C10.5531 17.8201 10.2734 17.8997 9.98625 17.9227C9.69913 17.9457 9.41029 17.9118 9.13633 17.8229L1.49824 15.3268C0.949667 15.1422 0.495967 14.7488 0.235453 14.2319C-0.0250621 13.715 -0.0714058 13.1163 0.106464 12.5655C0.284333 12.0147 0.672088 11.5561 1.1857 11.2892C1.69932 11.0223 2.29743 10.9685 2.85042 11.1396L10.4885 13.6355C11.0421 13.8173 11.5009 14.2112 11.7645 14.731C12.028 15.2506 12.0745 15.8536 11.894 16.4077ZM22.1296 16.4077C22.217 16.6826 22.358 16.9377 22.5445 17.1578C22.731 17.3781 22.9592 17.5592 23.216 17.6908C23.4729 17.8223 23.7532 17.9017 24.0408 17.9244C24.3285 17.947 24.6178 17.9125 24.8921 17.8229L32.5302 15.3268C33.0788 15.1422 33.5324 14.7488 33.7929 14.2319C34.0535 13.715 34.0998 13.1163 33.9219 12.5655C33.744 12.0147 33.3563 11.5561 32.8427 11.2892C32.3291 11.0223 31.7309 10.9685 31.178 11.1396L23.5351 13.6355C22.9822 13.8183 22.5243 14.2125 22.2609 14.7318C21.9976 15.2512 21.9504 15.8536 22.1296 16.4077ZM6.54824 32.5611C6.07741 32.2161 5.7622 31.6989 5.6714 31.1223C5.58059 30.5457 5.72159 29.9566 6.06358 29.4836L10.784 22.9748C10.9528 22.7417 11.1657 22.5443 11.4108 22.3938C11.656 22.2432 11.9284 22.1426 12.2125 22.0976C12.4966 22.0525 12.7868 22.064 13.0665 22.1314C13.3462 22.1988 13.6098 22.3207 13.8422 22.4901C14.3131 22.8351 14.6282 23.3523 14.7191 23.9289C14.8098 24.5055 14.6689 25.0946 14.3269 25.5677L9.61122 32.0717C9.44211 32.3048 9.22867 32.5023 8.98312 32.653C8.73758 32.8035 8.46474 32.9042 8.18024 32.9492C7.89574 32.9942 7.60514 32.9827 7.32511 32.9153C7.04506 32.8479 6.78107 32.7259 6.54824 32.5562V32.5611ZM27.4757 32.5611C27.9465 32.2161 28.2617 31.6989 28.3526 31.1223C28.4433 30.5457 28.3024 29.9566 27.9604 29.4836L23.2447 22.9748C23.0748 22.7419 22.8607 22.5447 22.6145 22.3944C22.3683 22.2443 22.0951 22.144 21.8101 22.0995C21.5253 22.0549 21.2345 22.0669 20.9542 22.1348C20.674 22.2026 20.4098 22.325 20.1768 22.495C19.944 22.6649 19.7467 22.879 19.5966 23.1252C19.4464 23.3713 19.3462 23.6446 19.3016 23.9295C19.2571 24.2144 19.269 24.5053 19.3369 24.7855C19.4047 25.0658 19.5272 25.3299 19.6971 25.5628L24.4175 32.0959C24.5863 32.3289 24.7992 32.5264 25.0443 32.6768C25.2895 32.8274 25.5619 32.928 25.846 32.9731C26.1301 33.018 26.4203 33.0066 26.7 32.9393C26.9797 32.8719 27.2433 32.7499 27.4757 32.5805V32.5611Z" fill="black"/>
</g>
<defs>
<clipPath id="clip0_5_286">
<rect width="134" height="33" fill="white"/>
</clipPath>
</defs>
</svg>
