<svg width="189" height="34" viewBox="0 0 189 34" fill="none" xmlns="http://www.w3.org/2000/svg">
<g clip-path="url(#clip0_5_288)">
<path fill-rule="evenodd" clip-rule="evenodd" d="M25.0431 0.125476C25.3667 0.249934 27.6816 1.22071 27.6816 1.22071C28.2541 1.46962 28.6523 2.01724 28.6523 2.68931V9.60916L24.0474 12.2726V6.22391L21.9316 8.33969C21.7325 8.53883 21.5333 8.66328 21.3342 8.73796C21.1849 8.78774 20.9857 8.83752 20.8115 8.83752H15.5843C15.3717 8.83752 15.2499 8.80121 15.1103 8.75959C15.0864 8.75249 15.0621 8.74522 15.0366 8.73796C14.8375 8.66328 14.6384 8.53883 14.489 8.38948L12.3484 6.2488V12.2975L7.74342 9.63405V2.68931C7.74342 2.39061 7.81809 2.1168 7.96744 1.86789C8.14168 1.56919 8.41549 1.34516 8.71419 1.22071C8.86701 1.15124 9.60135 0.849171 10.2594 0.578465C10.7803 0.364203 11.2537 0.169462 11.3527 0.125476C11.5518 0.02591 11.9003 -0.0487647 12.3235 0.0508016C12.7217 0.150368 12.9209 0.324609 13.0702 0.473958L18.173 5.57673C18.173 5.57673 23.1762 0.573524 23.3255 0.449067C23.45 0.324609 23.6989 0.125476 24.0474 0.0508016C24.3959 -0.0238731 24.7195 0.00101845 25.0431 0.125476ZM0.400594 19.0679C0.35081 18.7195 0.0272199 16.2303 0.0272199 16.2303C-0.0723464 15.608 0.226353 14.9857 0.798859 14.5875C1.42115 14.239 6.79773 11.1275 6.79773 11.1275L11.4027 13.7909L6.15055 16.8277C6.15055 16.8277 8.76416 17.5247 9.03797 17.5993C9.33667 17.674 9.51091 17.7985 9.68515 17.9229C9.80961 18.0474 9.93407 18.1967 10.0336 18.3461C10.0336 18.3461 12.5228 22.6523 12.6472 22.8764C12.7966 23.1004 12.8215 23.2248 12.8464 23.3991C12.8962 23.6231 12.8713 23.8471 12.8215 24.0712L12.025 27.0084L17.2771 23.9716V29.2984C17.2771 29.2984 11.0044 32.9326 11.2533 32.7832C11.0044 32.9326 10.7057 32.9823 10.4319 32.9823C10.0834 32.9823 9.75982 32.8579 9.51091 32.6587C9.38414 32.5461 8.73128 32.0508 8.15676 31.6149C7.7161 31.2806 7.32141 30.9812 7.24578 30.9163C7.07153 30.7919 6.82262 30.5181 6.69816 30.1198C6.59859 29.6966 6.64838 29.4477 6.69816 29.2486C6.74794 29.0495 8.56503 22.279 8.56503 22.279C8.56503 22.279 1.71985 20.437 1.54561 20.3872C1.34647 20.3374 1.07267 20.2379 0.82375 19.964C0.574835 19.6902 0.450377 19.4164 0.400594 19.0679ZM26.8352 32.6836C26.8352 32.6836 28.8266 31.1404 29.1004 30.9412C29.3742 30.7172 29.5484 30.4683 29.6729 30.1198C29.7724 29.7713 29.7476 29.4726 29.6978 29.2735C29.648 29.0992 27.8309 22.2541 27.8309 22.2541C27.8309 22.2541 34.6014 20.437 34.8005 20.3872C34.9997 20.3374 35.2486 20.2627 35.5473 19.9392C35.846 19.6405 35.9456 19.292 35.9705 19.0431C35.9953 18.819 36.294 16.5041 36.3438 16.2054C36.3936 15.9067 36.3189 15.5333 36.1696 15.2346C36.0451 14.9857 35.846 14.7866 35.5722 14.6372C35.8211 14.7866 29.5484 11.1524 29.5484 11.1524L24.9435 13.8158L30.1956 16.8526L27.2584 17.6491C27.0344 17.6989 26.8352 17.8234 26.661 17.9478C26.6399 17.969 26.6194 17.9887 26.5995 18.0079C26.5021 18.1019 26.4158 18.1852 26.3125 18.371C26.1881 18.595 23.6989 22.9012 23.6989 22.9012C23.5993 23.0755 23.5496 23.2248 23.5247 23.3991C23.4998 23.5982 23.4998 23.8222 23.5744 24.1209C23.6491 24.3947 24.3461 27.0084 24.3461 27.0084L19.094 23.9716V29.2984C19.094 29.2984 24.4705 32.4098 25.0928 32.7583C25.6653 33.1317 26.3374 33.057 26.8352 32.6836ZM67.7821 26.2118V8.26501H82.1445V11.3765H71.715V15.5333L82.1445 15.5582V18.6697H71.715V23.1004H82.1445V26.2118H67.7821ZM141.063 8.26501V26.2118H155.45V23.1004H145.02V18.6697H155.45V15.5582L145.02 15.5333V11.3765H155.45V8.26501H141.063ZM100.091 8.24012V26.2118H103.925V8.24012H100.091ZM50.5322 8.24012L55.0127 22.2541L59.7172 8.24012H65.3178V26.2118H61.6588V12.7206L56.9543 26.2118H53.0214L48.5907 12.7206V26.2118H44.9316V8.24012H50.5322ZM83.3641 11.4262H89.114V26.2118H92.9224V11.4262H98.8715V8.24012H83.3641V11.4262ZM120.95 8.24012V26.2118H117.117V18.7693H110.197V26.2118H106.389V8.24012H110.197V15.5582H117.117V8.24012H120.95ZM123.29 8.24012V26.2118H133.222C134.691 26.2118 135.836 26.0874 136.582 25.8385C137.329 25.5895 137.951 25.0917 138.424 24.4196C138.997 23.5982 139.271 22.6523 139.271 21.4575C139.271 19.4413 138.399 18.0474 136.657 17.226C137.404 16.9273 138.026 16.3299 138.499 15.5582C138.997 14.7368 139.246 13.8656 139.246 12.9446C139.246 12.2228 139.121 11.5258 138.798 10.8537C138.375 9.88296 137.752 9.186 136.906 8.76284C136.184 8.43925 135.039 8.24012 133.446 8.24012H123.29ZM132.351 15.6329H127.124V11.4511H132.425C133.272 11.4511 133.894 11.5756 134.292 11.8245C134.79 12.173 135.064 12.7206 135.064 13.4425C135.064 14.1892 134.815 14.7866 134.243 15.2098C134.019 15.3591 133.77 15.5085 133.521 15.5582C133.297 15.608 132.898 15.6329 132.351 15.6329ZM132.326 23.0257H127.124L127.099 18.8439H132.401C133.247 18.8439 133.869 18.9684 134.267 19.2173C134.765 19.5658 135.039 20.1134 135.039 20.8353C135.039 21.582 134.79 22.1545 134.218 22.6026C133.994 22.7519 133.77 22.9013 133.496 22.951C133.272 23.0008 132.874 23.0257 132.326 23.0257ZM171.654 23.0257V26.2118H165.382C164.212 26.2118 163.291 26.162 162.669 26.0376C160.453 25.6144 158.885 24.3699 157.964 22.3287C157.342 20.9846 157.018 19.292 157.018 17.2758C157.018 14.8862 157.491 12.8948 158.437 11.4013C159.781 9.23578 161.947 8.26501 165.556 8.26501H171.654V11.4511H165.979C164.286 11.4511 163.017 11.8992 162.22 12.8202C161.573 13.5669 161.25 14.936 161.25 16.9273C161.25 19.5907 161.748 21.3331 162.793 22.1545C163.515 22.727 164.635 23.0257 166.153 23.0257H171.654ZM172.874 11.4262H178.599V26.2118H182.408V11.4262H188.382V8.24012H172.874V11.4262Z" fill="black"/>
</g>
<defs>
<clipPath id="clip0_5_288">
<rect width="189" height="34" fill="white"/>
</clipPath>
</defs>
</svg>
