<svg width="178" height="33" viewBox="0 0 178 33" fill="none" xmlns="http://www.w3.org/2000/svg">
<g clip-path="url(#clip0_5_290)">
<path fill-rule="evenodd" clip-rule="evenodd" d="M23.65 33L30.3875 12.2375V33H40.5625V0H26.8125L20.2125 16.5L13.75 0H0V33H10.175V12.2375L17.05 33H23.65ZM132.688 20.2125C135.85 19.9375 139.012 17.7375 139.012 14.1625V6.7375V6.05C138.6 2.3375 135.85 0.275 132.688 0H106.562V33H116.738V20.2125H120.725L127.325 33H139.012L131.175 20.2125H132.688ZM129.938 11.55C129.938 12.2375 129.8 12.925 128.562 12.925H116.738V6.4625H128.562C129.938 6.4625 129.938 7.425 129.938 7.975V11.55ZM71.0875 6.4625V0H44.6875V33H71.3625V26.5375H54.8625V19.525H71.0875V13.0625H54.8625V6.4625H71.0875ZM83.7375 6.4625H74.1125V0H103.538V6.4625H93.9125V33H83.7375V6.4625ZM171.05 0H149.463C146.163 0.275 143.55 1.925 143.137 5.6375V26.95C143.55 30.6625 146.3 32.725 149.463 32.8625H171.05C174.35 32.5875 176.962 30.6625 177.375 26.95V5.6375C176.962 1.925 174.213 0.275 171.05 0ZM167.2 25.025C167.2 25.4375 167.062 26.4 165.825 26.5375H154.825C153.587 26.4 153.312 25.4375 153.312 25.025V7.8375C153.312 7.425 153.587 6.7375 154.825 6.6H165.825C167.062 6.7375 167.2 7.5625 167.2 7.8375V25.025Z" fill="black"/>
</g>
<defs>
<clipPath id="clip0_5_290">
<rect width="178" height="33" fill="white"/>
</clipPath>
</defs>
</svg>
